<mxfile host="Electron" modified="2025-01-19T15:38:04.414Z" agent="Mozilla/5.0 (Windows NT 10.0; Win64; x64) AppleWebKit/537.36 (KHTML, like Gecko) draw.io/24.4.8 Chrome/124.0.6367.207 Electron/30.0.6 Safari/537.36" etag="AdWMBVIRC9_evrR_-eJh" version="24.4.8" type="device">
  <diagram name="第 1 页" id="gFeEmCXa8AVN-RLCaWWL">
    <mxGraphModel dx="3653" dy="2058" grid="1" gridSize="10" guides="1" tooltips="1" connect="1" arrows="1" fold="1" page="1" pageScale="1" pageWidth="3300" pageHeight="4681" background="none" math="0" shadow="1">
      <root>
        <mxCell id="0" />
        <mxCell id="1" parent="0" />
        <mxCell id="TKMVQjpAaQ59t7xjAut5-2" value="扇区" style="rounded=0;whiteSpace=wrap;html=1;sketch=1;curveFitting=1;jiggle=2;labelBackgroundColor=none;" parent="1" vertex="1">
          <mxGeometry x="2690.77" y="405" width="80" height="50" as="geometry" />
        </mxCell>
        <mxCell id="TKMVQjpAaQ59t7xjAut5-3" value="扇区" style="rounded=0;whiteSpace=wrap;html=1;sketch=1;curveFitting=1;jiggle=2;labelBackgroundColor=none;" parent="1" vertex="1">
          <mxGeometry x="2770.77" y="405" width="80" height="50" as="geometry" />
        </mxCell>
        <mxCell id="TKMVQjpAaQ59t7xjAut5-4" value="扇区" style="rounded=0;whiteSpace=wrap;html=1;sketch=1;curveFitting=1;jiggle=2;labelBackgroundColor=none;" parent="1" vertex="1">
          <mxGeometry x="2850.77" y="405" width="80" height="50" as="geometry" />
        </mxCell>
        <mxCell id="TKMVQjpAaQ59t7xjAut5-14" value="1" style="text;html=1;align=center;verticalAlign=middle;resizable=0;points=[];autosize=1;strokeColor=none;fillColor=none;rounded=0;sketch=1;curveFitting=1;jiggle=2;labelBackgroundColor=none;" parent="1" vertex="1">
          <mxGeometry x="2715.77" y="473" width="30" height="30" as="geometry" />
        </mxCell>
        <mxCell id="TKMVQjpAaQ59t7xjAut5-15" value="2" style="text;html=1;align=center;verticalAlign=middle;resizable=0;points=[];autosize=1;strokeColor=none;fillColor=none;rounded=0;sketch=1;curveFitting=1;jiggle=2;labelBackgroundColor=none;" parent="1" vertex="1">
          <mxGeometry x="2795.77" y="473" width="30" height="30" as="geometry" />
        </mxCell>
        <mxCell id="TKMVQjpAaQ59t7xjAut5-16" value="3" style="text;html=1;align=center;verticalAlign=middle;resizable=0;points=[];autosize=1;strokeColor=none;fillColor=none;rounded=0;sketch=1;curveFitting=1;jiggle=2;labelBackgroundColor=none;" parent="1" vertex="1">
          <mxGeometry x="2875.77" y="473" width="30" height="30" as="geometry" />
        </mxCell>
        <mxCell id="TKMVQjpAaQ59t7xjAut5-17" value="4" style="text;html=1;align=center;verticalAlign=middle;resizable=0;points=[];autosize=1;strokeColor=none;fillColor=none;rounded=0;sketch=1;curveFitting=1;jiggle=2;labelBackgroundColor=none;" parent="1" vertex="1">
          <mxGeometry x="2955.77" y="473" width="30" height="30" as="geometry" />
        </mxCell>
        <mxCell id="TKMVQjpAaQ59t7xjAut5-18" value="扇区" style="rounded=0;whiteSpace=wrap;html=1;sketch=1;curveFitting=1;jiggle=2;labelBackgroundColor=none;" parent="1" vertex="1">
          <mxGeometry x="2930.77" y="405" width="80" height="50" as="geometry" />
        </mxCell>
        <mxCell id="TKMVQjpAaQ59t7xjAut5-19" value="扇区" style="rounded=0;whiteSpace=wrap;html=1;sketch=1;curveFitting=1;jiggle=2;labelBackgroundColor=none;" parent="1" vertex="1">
          <mxGeometry x="3010.77" y="405" width="80" height="50" as="geometry" />
        </mxCell>
        <mxCell id="TKMVQjpAaQ59t7xjAut5-20" value="扇区" style="rounded=0;whiteSpace=wrap;html=1;sketch=1;curveFitting=1;jiggle=2;labelBackgroundColor=none;" parent="1" vertex="1">
          <mxGeometry x="3090.77" y="405" width="80" height="50" as="geometry" />
        </mxCell>
        <mxCell id="TKMVQjpAaQ59t7xjAut5-21" value="5" style="text;html=1;align=center;verticalAlign=middle;resizable=0;points=[];autosize=1;strokeColor=none;fillColor=none;rounded=0;sketch=1;curveFitting=1;jiggle=2;labelBackgroundColor=none;" parent="1" vertex="1">
          <mxGeometry x="3035.77" y="473" width="30" height="30" as="geometry" />
        </mxCell>
        <mxCell id="TKMVQjpAaQ59t7xjAut5-25" value="6" style="text;html=1;align=center;verticalAlign=middle;resizable=0;points=[];autosize=1;strokeColor=none;fillColor=none;rounded=0;sketch=1;curveFitting=1;jiggle=2;labelBackgroundColor=none;" parent="1" vertex="1">
          <mxGeometry x="3115.77" y="473" width="30" height="30" as="geometry" />
        </mxCell>
        <mxCell id="TKMVQjpAaQ59t7xjAut5-26" value="" style="endArrow=none;dashed=1;html=1;dashPattern=1 3;strokeWidth=2;rounded=0;sketch=1;curveFitting=1;jiggle=2;labelBackgroundColor=none;fontColor=default;" parent="1" edge="1">
          <mxGeometry width="50" height="50" relative="1" as="geometry">
            <mxPoint x="3190.77" y="435" as="sourcePoint" />
            <mxPoint x="3220.77" y="435" as="targetPoint" />
          </mxGeometry>
        </mxCell>
        <mxCell id="TKMVQjpAaQ59t7xjAut5-27" value="&#xa;&lt;span style=&quot;color: rgb(0, 0, 0); font-family: Helvetica; font-size: 12px; font-style: normal; font-variant-ligatures: normal; font-variant-caps: normal; font-weight: 400; letter-spacing: normal; orphans: 2; text-align: center; text-indent: 0px; text-transform: none; widows: 2; word-spacing: 0px; -webkit-text-stroke-width: 0px; white-space: normal; background-color: rgb(251, 251, 251); text-decoration-thickness: initial; text-decoration-style: initial; text-decoration-color: initial; display: inline !important; float: none;&quot;&gt;扇区&lt;/span&gt;&#xa;&#xa;" style="rounded=0;whiteSpace=wrap;html=1;sketch=1;curveFitting=1;jiggle=2;labelBackgroundColor=none;" parent="1" vertex="1">
          <mxGeometry x="2690.77" y="503" width="80" height="50" as="geometry" />
        </mxCell>
        <mxCell id="TKMVQjpAaQ59t7xjAut5-28" value="扇区" style="rounded=0;whiteSpace=wrap;html=1;sketch=1;curveFitting=1;jiggle=2;labelBackgroundColor=none;" parent="1" vertex="1">
          <mxGeometry x="2770.77" y="503" width="80" height="50" as="geometry" />
        </mxCell>
        <mxCell id="TKMVQjpAaQ59t7xjAut5-29" value="扇区" style="rounded=0;whiteSpace=wrap;html=1;sketch=1;curveFitting=1;jiggle=2;labelBackgroundColor=none;" parent="1" vertex="1">
          <mxGeometry x="2850.77" y="503" width="80" height="50" as="geometry" />
        </mxCell>
        <mxCell id="TKMVQjpAaQ59t7xjAut5-30" value="1" style="text;html=1;align=center;verticalAlign=middle;resizable=0;points=[];autosize=1;strokeColor=none;fillColor=none;rounded=0;sketch=1;curveFitting=1;jiggle=2;labelBackgroundColor=none;" parent="1" vertex="1">
          <mxGeometry x="2715.77" y="571" width="30" height="30" as="geometry" />
        </mxCell>
        <mxCell id="TKMVQjpAaQ59t7xjAut5-31" value="2" style="text;html=1;align=center;verticalAlign=middle;resizable=0;points=[];autosize=1;strokeColor=none;fillColor=none;rounded=0;sketch=1;curveFitting=1;jiggle=2;labelBackgroundColor=none;" parent="1" vertex="1">
          <mxGeometry x="2795.77" y="571" width="30" height="30" as="geometry" />
        </mxCell>
        <mxCell id="TKMVQjpAaQ59t7xjAut5-32" value="3" style="text;html=1;align=center;verticalAlign=middle;resizable=0;points=[];autosize=1;strokeColor=none;fillColor=none;rounded=0;sketch=1;curveFitting=1;jiggle=2;labelBackgroundColor=none;" parent="1" vertex="1">
          <mxGeometry x="2875.77" y="571" width="30" height="30" as="geometry" />
        </mxCell>
        <mxCell id="TKMVQjpAaQ59t7xjAut5-33" value="4" style="text;html=1;align=center;verticalAlign=middle;resizable=0;points=[];autosize=1;strokeColor=none;fillColor=none;rounded=0;sketch=1;curveFitting=1;jiggle=2;labelBackgroundColor=none;" parent="1" vertex="1">
          <mxGeometry x="2955.77" y="571" width="30" height="30" as="geometry" />
        </mxCell>
        <mxCell id="TKMVQjpAaQ59t7xjAut5-34" value="扇区" style="rounded=0;whiteSpace=wrap;html=1;sketch=1;curveFitting=1;jiggle=2;labelBackgroundColor=none;" parent="1" vertex="1">
          <mxGeometry x="2930.77" y="503" width="80" height="50" as="geometry" />
        </mxCell>
        <mxCell id="TKMVQjpAaQ59t7xjAut5-35" value="扇区" style="rounded=0;whiteSpace=wrap;html=1;sketch=1;curveFitting=1;jiggle=2;labelBackgroundColor=none;" parent="1" vertex="1">
          <mxGeometry x="3010.77" y="503" width="80" height="50" as="geometry" />
        </mxCell>
        <mxCell id="TKMVQjpAaQ59t7xjAut5-36" value="扇区" style="rounded=0;whiteSpace=wrap;html=1;sketch=1;curveFitting=1;jiggle=2;labelBackgroundColor=none;" parent="1" vertex="1">
          <mxGeometry x="3090.77" y="503" width="80" height="50" as="geometry" />
        </mxCell>
        <mxCell id="TKMVQjpAaQ59t7xjAut5-37" value="5" style="text;html=1;align=center;verticalAlign=middle;resizable=0;points=[];autosize=1;strokeColor=none;fillColor=none;rounded=0;sketch=1;curveFitting=1;jiggle=2;labelBackgroundColor=none;" parent="1" vertex="1">
          <mxGeometry x="3035.77" y="571" width="30" height="30" as="geometry" />
        </mxCell>
        <mxCell id="TKMVQjpAaQ59t7xjAut5-38" value="6" style="text;html=1;align=center;verticalAlign=middle;resizable=0;points=[];autosize=1;strokeColor=none;fillColor=none;rounded=0;sketch=1;curveFitting=1;jiggle=2;labelBackgroundColor=none;" parent="1" vertex="1">
          <mxGeometry x="3115.77" y="571" width="30" height="30" as="geometry" />
        </mxCell>
        <mxCell id="TKMVQjpAaQ59t7xjAut5-39" value="" style="endArrow=none;dashed=1;html=1;dashPattern=1 3;strokeWidth=2;rounded=0;sketch=1;curveFitting=1;jiggle=2;labelBackgroundColor=none;fontColor=default;" parent="1" edge="1">
          <mxGeometry width="50" height="50" relative="1" as="geometry">
            <mxPoint x="3190.77" y="533" as="sourcePoint" />
            <mxPoint x="3220.77" y="533" as="targetPoint" />
          </mxGeometry>
        </mxCell>
        <mxCell id="TKMVQjpAaQ59t7xjAut5-40" value="扇区" style="rounded=0;whiteSpace=wrap;html=1;sketch=1;curveFitting=1;jiggle=2;labelBackgroundColor=none;" parent="1" vertex="1">
          <mxGeometry x="2690.77" y="601" width="80" height="50" as="geometry" />
        </mxCell>
        <mxCell id="TKMVQjpAaQ59t7xjAut5-41" value="扇区" style="rounded=0;whiteSpace=wrap;html=1;sketch=1;curveFitting=1;jiggle=2;labelBackgroundColor=none;" parent="1" vertex="1">
          <mxGeometry x="2770.77" y="601" width="80" height="50" as="geometry" />
        </mxCell>
        <mxCell id="TKMVQjpAaQ59t7xjAut5-42" value="扇区" style="rounded=0;whiteSpace=wrap;html=1;sketch=1;curveFitting=1;jiggle=2;labelBackgroundColor=none;" parent="1" vertex="1">
          <mxGeometry x="2850.77" y="601" width="80" height="50" as="geometry" />
        </mxCell>
        <mxCell id="TKMVQjpAaQ59t7xjAut5-43" value="1" style="text;html=1;align=center;verticalAlign=middle;resizable=0;points=[];autosize=1;strokeColor=none;fillColor=none;rounded=0;sketch=1;curveFitting=1;jiggle=2;labelBackgroundColor=none;" parent="1" vertex="1">
          <mxGeometry x="2715.77" y="669" width="30" height="30" as="geometry" />
        </mxCell>
        <mxCell id="TKMVQjpAaQ59t7xjAut5-44" value="2" style="text;html=1;align=center;verticalAlign=middle;resizable=0;points=[];autosize=1;strokeColor=none;fillColor=none;rounded=0;sketch=1;curveFitting=1;jiggle=2;labelBackgroundColor=none;" parent="1" vertex="1">
          <mxGeometry x="2795.77" y="669" width="30" height="30" as="geometry" />
        </mxCell>
        <mxCell id="TKMVQjpAaQ59t7xjAut5-45" value="3" style="text;html=1;align=center;verticalAlign=middle;resizable=0;points=[];autosize=1;strokeColor=none;fillColor=none;rounded=0;sketch=1;curveFitting=1;jiggle=2;labelBackgroundColor=none;" parent="1" vertex="1">
          <mxGeometry x="2875.77" y="669" width="30" height="30" as="geometry" />
        </mxCell>
        <mxCell id="TKMVQjpAaQ59t7xjAut5-46" value="4" style="text;html=1;align=center;verticalAlign=middle;resizable=0;points=[];autosize=1;strokeColor=none;fillColor=none;rounded=0;sketch=1;curveFitting=1;jiggle=2;labelBackgroundColor=none;" parent="1" vertex="1">
          <mxGeometry x="2955.77" y="669" width="30" height="30" as="geometry" />
        </mxCell>
        <mxCell id="TKMVQjpAaQ59t7xjAut5-47" value="扇区" style="rounded=0;whiteSpace=wrap;html=1;sketch=1;curveFitting=1;jiggle=2;labelBackgroundColor=none;" parent="1" vertex="1">
          <mxGeometry x="2930.77" y="601" width="80" height="50" as="geometry" />
        </mxCell>
        <mxCell id="TKMVQjpAaQ59t7xjAut5-48" value="扇区" style="rounded=0;whiteSpace=wrap;html=1;sketch=1;curveFitting=1;jiggle=2;labelBackgroundColor=none;" parent="1" vertex="1">
          <mxGeometry x="3010.77" y="601" width="80" height="50" as="geometry" />
        </mxCell>
        <mxCell id="TKMVQjpAaQ59t7xjAut5-49" value="扇区" style="rounded=0;whiteSpace=wrap;html=1;sketch=1;curveFitting=1;jiggle=2;labelBackgroundColor=none;" parent="1" vertex="1">
          <mxGeometry x="3090.77" y="601" width="80" height="50" as="geometry" />
        </mxCell>
        <mxCell id="TKMVQjpAaQ59t7xjAut5-50" value="5" style="text;html=1;align=center;verticalAlign=middle;resizable=0;points=[];autosize=1;strokeColor=none;fillColor=none;rounded=0;sketch=1;curveFitting=1;jiggle=2;labelBackgroundColor=none;" parent="1" vertex="1">
          <mxGeometry x="3035.77" y="669" width="30" height="30" as="geometry" />
        </mxCell>
        <mxCell id="TKMVQjpAaQ59t7xjAut5-51" value="6" style="text;html=1;align=center;verticalAlign=middle;resizable=0;points=[];autosize=1;strokeColor=none;fillColor=none;rounded=0;sketch=1;curveFitting=1;jiggle=2;labelBackgroundColor=none;" parent="1" vertex="1">
          <mxGeometry x="3115.77" y="669" width="30" height="30" as="geometry" />
        </mxCell>
        <mxCell id="TKMVQjpAaQ59t7xjAut5-52" value="" style="endArrow=none;dashed=1;html=1;dashPattern=1 3;strokeWidth=2;rounded=0;sketch=1;curveFitting=1;jiggle=2;labelBackgroundColor=none;fontColor=default;" parent="1" edge="1">
          <mxGeometry width="50" height="50" relative="1" as="geometry">
            <mxPoint x="3190.77" y="631" as="sourcePoint" />
            <mxPoint x="3220.77" y="631" as="targetPoint" />
          </mxGeometry>
        </mxCell>
        <mxCell id="TKMVQjpAaQ59t7xjAut5-53" value="1" style="text;html=1;align=center;verticalAlign=middle;resizable=0;points=[];autosize=1;strokeColor=none;fillColor=none;rounded=0;sketch=1;curveFitting=1;jiggle=2;labelBackgroundColor=none;" parent="1" vertex="1">
          <mxGeometry x="2625.77" y="413" width="30" height="30" as="geometry" />
        </mxCell>
        <mxCell id="TKMVQjpAaQ59t7xjAut5-54" value="2" style="text;html=1;align=center;verticalAlign=middle;resizable=0;points=[];autosize=1;strokeColor=none;fillColor=none;rounded=0;sketch=1;curveFitting=1;jiggle=2;labelBackgroundColor=none;" parent="1" vertex="1">
          <mxGeometry x="2625.77" y="513" width="30" height="30" as="geometry" />
        </mxCell>
        <mxCell id="TKMVQjpAaQ59t7xjAut5-55" value="3" style="text;html=1;align=center;verticalAlign=middle;resizable=0;points=[];autosize=1;strokeColor=none;fillColor=none;rounded=0;sketch=1;curveFitting=1;jiggle=2;labelBackgroundColor=none;" parent="1" vertex="1">
          <mxGeometry x="2625.77" y="613" width="30" height="30" as="geometry" />
        </mxCell>
        <mxCell id="TKMVQjpAaQ59t7xjAut5-57" value="扇区" style="rounded=0;whiteSpace=wrap;html=1;sketch=1;curveFitting=1;jiggle=2;labelBackgroundColor=none;" parent="1" vertex="1">
          <mxGeometry x="2690.77" y="699" width="80" height="50" as="geometry" />
        </mxCell>
        <mxCell id="TKMVQjpAaQ59t7xjAut5-58" value="扇区" style="rounded=0;whiteSpace=wrap;html=1;sketch=1;curveFitting=1;jiggle=2;labelBackgroundColor=none;" parent="1" vertex="1">
          <mxGeometry x="2770.77" y="699" width="80" height="50" as="geometry" />
        </mxCell>
        <mxCell id="TKMVQjpAaQ59t7xjAut5-59" value="扇区" style="rounded=0;whiteSpace=wrap;html=1;sketch=1;curveFitting=1;jiggle=2;labelBackgroundColor=none;" parent="1" vertex="1">
          <mxGeometry x="2850.77" y="699" width="80" height="50" as="geometry" />
        </mxCell>
        <mxCell id="TKMVQjpAaQ59t7xjAut5-60" value="1" style="text;html=1;align=center;verticalAlign=middle;resizable=0;points=[];autosize=1;strokeColor=none;fillColor=none;rounded=0;sketch=1;curveFitting=1;jiggle=2;labelBackgroundColor=none;" parent="1" vertex="1">
          <mxGeometry x="2715.77" y="767" width="30" height="30" as="geometry" />
        </mxCell>
        <mxCell id="TKMVQjpAaQ59t7xjAut5-61" value="2" style="text;html=1;align=center;verticalAlign=middle;resizable=0;points=[];autosize=1;strokeColor=none;fillColor=none;rounded=0;sketch=1;curveFitting=1;jiggle=2;labelBackgroundColor=none;" parent="1" vertex="1">
          <mxGeometry x="2795.77" y="767" width="30" height="30" as="geometry" />
        </mxCell>
        <mxCell id="TKMVQjpAaQ59t7xjAut5-62" value="3" style="text;html=1;align=center;verticalAlign=middle;resizable=0;points=[];autosize=1;strokeColor=none;fillColor=none;rounded=0;sketch=1;curveFitting=1;jiggle=2;labelBackgroundColor=none;" parent="1" vertex="1">
          <mxGeometry x="2875.77" y="767" width="30" height="30" as="geometry" />
        </mxCell>
        <mxCell id="TKMVQjpAaQ59t7xjAut5-63" value="4" style="text;html=1;align=center;verticalAlign=middle;resizable=0;points=[];autosize=1;strokeColor=none;fillColor=none;rounded=0;sketch=1;curveFitting=1;jiggle=2;labelBackgroundColor=none;" parent="1" vertex="1">
          <mxGeometry x="2955.77" y="767" width="30" height="30" as="geometry" />
        </mxCell>
        <mxCell id="TKMVQjpAaQ59t7xjAut5-64" value="扇区" style="rounded=0;whiteSpace=wrap;html=1;sketch=1;curveFitting=1;jiggle=2;labelBackgroundColor=none;" parent="1" vertex="1">
          <mxGeometry x="2930.77" y="699" width="80" height="50" as="geometry" />
        </mxCell>
        <mxCell id="TKMVQjpAaQ59t7xjAut5-65" value="扇区" style="rounded=0;whiteSpace=wrap;html=1;sketch=1;curveFitting=1;jiggle=2;labelBackgroundColor=none;" parent="1" vertex="1">
          <mxGeometry x="3010.77" y="699" width="80" height="50" as="geometry" />
        </mxCell>
        <mxCell id="TKMVQjpAaQ59t7xjAut5-66" value="扇区" style="rounded=0;whiteSpace=wrap;html=1;sketch=1;curveFitting=1;jiggle=2;labelBackgroundColor=none;" parent="1" vertex="1">
          <mxGeometry x="3090.77" y="699" width="80" height="50" as="geometry" />
        </mxCell>
        <mxCell id="TKMVQjpAaQ59t7xjAut5-67" value="5" style="text;html=1;align=center;verticalAlign=middle;resizable=0;points=[];autosize=1;strokeColor=none;fillColor=none;rounded=0;sketch=1;curveFitting=1;jiggle=2;labelBackgroundColor=none;" parent="1" vertex="1">
          <mxGeometry x="3035.77" y="767" width="30" height="30" as="geometry" />
        </mxCell>
        <mxCell id="TKMVQjpAaQ59t7xjAut5-68" value="6" style="text;html=1;align=center;verticalAlign=middle;resizable=0;points=[];autosize=1;strokeColor=none;fillColor=none;rounded=0;sketch=1;curveFitting=1;jiggle=2;labelBackgroundColor=none;" parent="1" vertex="1">
          <mxGeometry x="3115.77" y="767" width="30" height="30" as="geometry" />
        </mxCell>
        <mxCell id="TKMVQjpAaQ59t7xjAut5-69" value="" style="endArrow=none;dashed=1;html=1;dashPattern=1 3;strokeWidth=2;rounded=0;sketch=1;curveFitting=1;jiggle=2;labelBackgroundColor=none;fontColor=default;" parent="1" edge="1">
          <mxGeometry width="50" height="50" relative="1" as="geometry">
            <mxPoint x="3190.77" y="729" as="sourcePoint" />
            <mxPoint x="3220.77" y="729" as="targetPoint" />
          </mxGeometry>
        </mxCell>
        <mxCell id="TKMVQjpAaQ59t7xjAut5-70" value="4" style="text;html=1;align=center;verticalAlign=middle;resizable=0;points=[];autosize=1;strokeColor=none;fillColor=none;rounded=0;sketch=1;curveFitting=1;jiggle=2;labelBackgroundColor=none;" parent="1" vertex="1">
          <mxGeometry x="2625.77" y="711" width="30" height="30" as="geometry" />
        </mxCell>
        <mxCell id="TKMVQjpAaQ59t7xjAut5-71" value="" style="endArrow=none;dashed=1;html=1;dashPattern=1 3;strokeWidth=2;rounded=0;sketch=1;curveFitting=1;jiggle=2;labelBackgroundColor=none;fontColor=default;" parent="1" edge="1">
          <mxGeometry width="50" height="50" relative="1" as="geometry">
            <mxPoint x="2640.77" y="763" as="sourcePoint" />
            <mxPoint x="2640.77" y="793" as="targetPoint" />
          </mxGeometry>
        </mxCell>
        <mxCell id="TKMVQjpAaQ59t7xjAut5-73" value="0号盘面磁道展开" style="text;html=1;align=center;verticalAlign=middle;resizable=0;points=[];autosize=1;strokeColor=none;fillColor=none;rounded=0;sketch=1;curveFitting=1;jiggle=2;labelBackgroundColor=none;" parent="1" vertex="1">
          <mxGeometry x="2440.77" y="465" width="110" height="30" as="geometry" />
        </mxCell>
        <mxCell id="TKMVQjpAaQ59t7xjAut5-74" value="1号盘面磁道展开" style="text;html=1;align=center;verticalAlign=middle;resizable=0;points=[];autosize=1;strokeColor=none;fillColor=none;rounded=0;sketch=1;curveFitting=1;jiggle=2;labelBackgroundColor=none;" parent="1" vertex="1">
          <mxGeometry x="2440.77" y="655" width="110" height="30" as="geometry" />
        </mxCell>
        <mxCell id="TKMVQjpAaQ59t7xjAut5-75" value="" style="endArrow=classic;html=1;rounded=0;exitX=1.021;exitY=0.05;exitDx=0;exitDy=0;exitPerimeter=0;entryX=-0.137;entryY=0.598;entryDx=0;entryDy=0;entryPerimeter=0;sketch=1;curveFitting=1;jiggle=2;labelBackgroundColor=none;fontColor=default;" parent="1" source="TKMVQjpAaQ59t7xjAut5-74" target="TKMVQjpAaQ59t7xjAut5-55" edge="1">
          <mxGeometry width="50" height="50" relative="1" as="geometry">
            <mxPoint x="3050.77" y="635" as="sourcePoint" />
            <mxPoint x="3100.77" y="585" as="targetPoint" />
          </mxGeometry>
        </mxCell>
        <mxCell id="TKMVQjpAaQ59t7xjAut5-76" value="" style="endArrow=classic;html=1;rounded=0;exitX=0.997;exitY=0.006;exitDx=0;exitDy=0;exitPerimeter=0;entryX=-0.137;entryY=0.598;entryDx=0;entryDy=0;entryPerimeter=0;sketch=1;curveFitting=1;jiggle=2;labelBackgroundColor=none;fontColor=default;" parent="1" source="TKMVQjpAaQ59t7xjAut5-73" edge="1">
          <mxGeometry width="50" height="50" relative="1" as="geometry">
            <mxPoint x="2575.77" y="469" as="sourcePoint" />
            <mxPoint x="2625.77" y="435" as="targetPoint" />
          </mxGeometry>
        </mxCell>
        <mxCell id="TKMVQjpAaQ59t7xjAut5-77" value="" style="endArrow=classic;html=1;rounded=0;exitX=1.029;exitY=0.92;exitDx=0;exitDy=0;exitPerimeter=0;entryX=-0.044;entryY=0.146;entryDx=0;entryDy=0;entryPerimeter=0;sketch=1;curveFitting=1;jiggle=2;labelBackgroundColor=none;fontColor=default;" parent="1" source="TKMVQjpAaQ59t7xjAut5-74" target="TKMVQjpAaQ59t7xjAut5-70" edge="1">
          <mxGeometry width="50" height="50" relative="1" as="geometry">
            <mxPoint x="2581.77" y="675" as="sourcePoint" />
            <mxPoint x="2631.77" y="641" as="targetPoint" />
          </mxGeometry>
        </mxCell>
        <mxCell id="TKMVQjpAaQ59t7xjAut5-79" value="" style="endArrow=classic;html=1;rounded=0;exitX=1.021;exitY=0.876;exitDx=0;exitDy=0;exitPerimeter=0;entryX=-0.044;entryY=0.146;entryDx=0;entryDy=0;entryPerimeter=0;sketch=1;curveFitting=1;jiggle=2;labelBackgroundColor=none;fontColor=default;" parent="1" source="TKMVQjpAaQ59t7xjAut5-73" edge="1">
          <mxGeometry width="50" height="50" relative="1" as="geometry">
            <mxPoint x="2574.77" y="503" as="sourcePoint" />
            <mxPoint x="2625.77" y="524" as="targetPoint" />
          </mxGeometry>
        </mxCell>
        <mxCell id="TKMVQjpAaQ59t7xjAut5-81" value="" style="endArrow=none;html=1;rounded=0;sketch=1;curveFitting=1;jiggle=2;labelBackgroundColor=none;fontColor=default;" parent="1" edge="1">
          <mxGeometry width="50" height="50" relative="1" as="geometry">
            <mxPoint x="2420.77" y="395" as="sourcePoint" />
            <mxPoint x="3260.77" y="395" as="targetPoint" />
          </mxGeometry>
        </mxCell>
        <mxCell id="TKMVQjpAaQ59t7xjAut5-82" value="" style="endArrow=none;html=1;rounded=0;sketch=1;curveFitting=1;jiggle=2;labelBackgroundColor=none;fontColor=default;" parent="1" edge="1">
          <mxGeometry width="50" height="50" relative="1" as="geometry">
            <mxPoint x="2420.77" y="796" as="sourcePoint" />
            <mxPoint x="3260.77" y="796.1700000000001" as="targetPoint" />
          </mxGeometry>
        </mxCell>
        <mxCell id="TKMVQjpAaQ59t7xjAut5-83" value="" style="endArrow=none;html=1;rounded=0;sketch=1;curveFitting=1;jiggle=2;labelBackgroundColor=none;fontColor=default;" parent="1" edge="1">
          <mxGeometry width="50" height="50" relative="1" as="geometry">
            <mxPoint x="3260.77" y="395" as="sourcePoint" />
            <mxPoint x="3260.77" y="795" as="targetPoint" />
          </mxGeometry>
        </mxCell>
        <mxCell id="TKMVQjpAaQ59t7xjAut5-84" value="" style="endArrow=none;html=1;rounded=0;sketch=1;curveFitting=1;jiggle=2;labelBackgroundColor=none;fontColor=default;" parent="1" edge="1">
          <mxGeometry width="50" height="50" relative="1" as="geometry">
            <mxPoint x="2420.77" y="397" as="sourcePoint" />
            <mxPoint x="2420.77" y="797" as="targetPoint" />
          </mxGeometry>
        </mxCell>
        <mxCell id="TKMVQjpAaQ59t7xjAut5-85" value="&lt;font style=&quot;font-size: 24px;&quot;&gt;柱面零&lt;/font&gt;" style="text;html=1;align=center;verticalAlign=middle;resizable=0;points=[];autosize=1;strokeColor=none;fillColor=none;rounded=0;sketch=1;curveFitting=1;jiggle=2;labelBackgroundColor=none;" parent="1" vertex="1">
          <mxGeometry x="2780.77" y="350" width="100" height="40" as="geometry" />
        </mxCell>
        <mxCell id="TKMVQjpAaQ59t7xjAut5-86" value="扇区" style="rounded=0;whiteSpace=wrap;html=1;sketch=1;curveFitting=1;jiggle=2;labelBackgroundColor=none;" parent="1" vertex="1">
          <mxGeometry x="1210" y="90" width="80" height="50" as="geometry" />
        </mxCell>
        <mxCell id="TKMVQjpAaQ59t7xjAut5-87" value="扇区" style="rounded=0;whiteSpace=wrap;html=1;sketch=1;curveFitting=1;jiggle=2;labelBackgroundColor=none;" parent="1" vertex="1">
          <mxGeometry x="1290" y="90" width="80" height="50" as="geometry" />
        </mxCell>
        <mxCell id="TKMVQjpAaQ59t7xjAut5-88" value="扇区" style="rounded=0;whiteSpace=wrap;html=1;sketch=1;curveFitting=1;jiggle=2;labelBackgroundColor=none;" parent="1" vertex="1">
          <mxGeometry x="1370" y="90" width="80" height="50" as="geometry" />
        </mxCell>
        <mxCell id="TKMVQjpAaQ59t7xjAut5-89" value="扇区" style="rounded=0;whiteSpace=wrap;html=1;sketch=1;curveFitting=1;jiggle=2;labelBackgroundColor=none;" parent="1" vertex="1">
          <mxGeometry x="1450" y="90" width="80" height="50" as="geometry" />
        </mxCell>
        <mxCell id="TKMVQjpAaQ59t7xjAut5-90" value="扇区" style="rounded=0;whiteSpace=wrap;html=1;sketch=1;curveFitting=1;jiggle=2;labelBackgroundColor=none;" parent="1" vertex="1">
          <mxGeometry x="1530" y="90" width="80" height="50" as="geometry" />
        </mxCell>
        <mxCell id="TKMVQjpAaQ59t7xjAut5-91" value="扇区" style="rounded=0;whiteSpace=wrap;html=1;sketch=1;curveFitting=1;jiggle=2;labelBackgroundColor=none;" parent="1" vertex="1">
          <mxGeometry x="1610" y="90" width="80" height="50" as="geometry" />
        </mxCell>
        <mxCell id="TKMVQjpAaQ59t7xjAut5-92" value="" style="endArrow=none;dashed=1;html=1;dashPattern=1 3;strokeWidth=2;rounded=0;sketch=1;curveFitting=1;jiggle=2;labelBackgroundColor=none;fontColor=default;" parent="1" edge="1">
          <mxGeometry width="50" height="50" relative="1" as="geometry">
            <mxPoint x="1710" y="120" as="sourcePoint" />
            <mxPoint x="1740" y="120" as="targetPoint" />
          </mxGeometry>
        </mxCell>
        <mxCell id="TKMVQjpAaQ59t7xjAut5-93" value="1" style="text;html=1;align=center;verticalAlign=middle;resizable=0;points=[];autosize=1;strokeColor=none;fillColor=none;rounded=0;sketch=1;curveFitting=1;jiggle=2;labelBackgroundColor=none;" parent="1" vertex="1">
          <mxGeometry x="1235" y="140" width="30" height="30" as="geometry" />
        </mxCell>
        <mxCell id="TKMVQjpAaQ59t7xjAut5-94" value="2" style="text;html=1;align=center;verticalAlign=middle;resizable=0;points=[];autosize=1;strokeColor=none;fillColor=none;rounded=0;sketch=1;curveFitting=1;jiggle=2;labelBackgroundColor=none;" parent="1" vertex="1">
          <mxGeometry x="1315" y="140" width="30" height="30" as="geometry" />
        </mxCell>
        <mxCell id="TKMVQjpAaQ59t7xjAut5-95" value="3" style="text;html=1;align=center;verticalAlign=middle;resizable=0;points=[];autosize=1;strokeColor=none;fillColor=none;rounded=0;sketch=1;curveFitting=1;jiggle=2;labelBackgroundColor=none;" parent="1" vertex="1">
          <mxGeometry x="1395" y="140" width="30" height="30" as="geometry" />
        </mxCell>
        <mxCell id="TKMVQjpAaQ59t7xjAut5-96" value="4" style="text;html=1;align=center;verticalAlign=middle;resizable=0;points=[];autosize=1;strokeColor=none;fillColor=none;rounded=0;sketch=1;curveFitting=1;jiggle=2;labelBackgroundColor=none;" parent="1" vertex="1">
          <mxGeometry x="1475" y="140" width="30" height="30" as="geometry" />
        </mxCell>
        <mxCell id="TKMVQjpAaQ59t7xjAut5-97" value="5" style="text;html=1;align=center;verticalAlign=middle;resizable=0;points=[];autosize=1;strokeColor=none;fillColor=none;rounded=0;sketch=1;curveFitting=1;jiggle=2;labelBackgroundColor=none;" parent="1" vertex="1">
          <mxGeometry x="1555" y="140" width="30" height="30" as="geometry" />
        </mxCell>
        <mxCell id="TKMVQjpAaQ59t7xjAut5-98" value="6" style="text;html=1;align=center;verticalAlign=middle;resizable=0;points=[];autosize=1;strokeColor=none;fillColor=none;rounded=0;sketch=1;curveFitting=1;jiggle=2;labelBackgroundColor=none;" parent="1" vertex="1">
          <mxGeometry x="1635" y="140" width="30" height="30" as="geometry" />
        </mxCell>
        <mxCell id="TKMVQjpAaQ59t7xjAut5-99" value="扇区" style="rounded=0;whiteSpace=wrap;html=1;sketch=1;curveFitting=1;jiggle=2;labelBackgroundColor=none;" parent="1" vertex="1">
          <mxGeometry x="2690" y="860" width="80" height="50" as="geometry" />
        </mxCell>
        <mxCell id="TKMVQjpAaQ59t7xjAut5-100" value="扇区" style="rounded=0;whiteSpace=wrap;html=1;sketch=1;curveFitting=1;jiggle=2;labelBackgroundColor=none;" parent="1" vertex="1">
          <mxGeometry x="2770" y="860" width="80" height="50" as="geometry" />
        </mxCell>
        <mxCell id="TKMVQjpAaQ59t7xjAut5-101" value="扇区" style="rounded=0;whiteSpace=wrap;html=1;sketch=1;curveFitting=1;jiggle=2;labelBackgroundColor=none;" parent="1" vertex="1">
          <mxGeometry x="2850" y="860" width="80" height="50" as="geometry" />
        </mxCell>
        <mxCell id="TKMVQjpAaQ59t7xjAut5-102" value="1" style="text;html=1;align=center;verticalAlign=middle;resizable=0;points=[];autosize=1;strokeColor=none;fillColor=none;rounded=0;sketch=1;curveFitting=1;jiggle=2;labelBackgroundColor=none;" parent="1" vertex="1">
          <mxGeometry x="2715" y="928" width="30" height="30" as="geometry" />
        </mxCell>
        <mxCell id="TKMVQjpAaQ59t7xjAut5-103" value="2" style="text;html=1;align=center;verticalAlign=middle;resizable=0;points=[];autosize=1;strokeColor=none;fillColor=none;rounded=0;sketch=1;curveFitting=1;jiggle=2;labelBackgroundColor=none;" parent="1" vertex="1">
          <mxGeometry x="2795" y="928" width="30" height="30" as="geometry" />
        </mxCell>
        <mxCell id="TKMVQjpAaQ59t7xjAut5-104" value="3" style="text;html=1;align=center;verticalAlign=middle;resizable=0;points=[];autosize=1;strokeColor=none;fillColor=none;rounded=0;sketch=1;curveFitting=1;jiggle=2;labelBackgroundColor=none;" parent="1" vertex="1">
          <mxGeometry x="2875" y="928" width="30" height="30" as="geometry" />
        </mxCell>
        <mxCell id="TKMVQjpAaQ59t7xjAut5-105" value="4" style="text;html=1;align=center;verticalAlign=middle;resizable=0;points=[];autosize=1;strokeColor=none;fillColor=none;rounded=0;sketch=1;curveFitting=1;jiggle=2;labelBackgroundColor=none;" parent="1" vertex="1">
          <mxGeometry x="2955" y="928" width="30" height="30" as="geometry" />
        </mxCell>
        <mxCell id="TKMVQjpAaQ59t7xjAut5-106" value="扇区" style="rounded=0;whiteSpace=wrap;html=1;sketch=1;curveFitting=1;jiggle=2;labelBackgroundColor=none;" parent="1" vertex="1">
          <mxGeometry x="2930" y="860" width="80" height="50" as="geometry" />
        </mxCell>
        <mxCell id="TKMVQjpAaQ59t7xjAut5-107" value="扇区" style="rounded=0;whiteSpace=wrap;html=1;sketch=1;curveFitting=1;jiggle=2;labelBackgroundColor=none;" parent="1" vertex="1">
          <mxGeometry x="3010" y="860" width="80" height="50" as="geometry" />
        </mxCell>
        <mxCell id="TKMVQjpAaQ59t7xjAut5-108" value="扇区" style="rounded=0;whiteSpace=wrap;html=1;sketch=1;curveFitting=1;jiggle=2;labelBackgroundColor=none;" parent="1" vertex="1">
          <mxGeometry x="3090" y="860" width="80" height="50" as="geometry" />
        </mxCell>
        <mxCell id="TKMVQjpAaQ59t7xjAut5-109" value="5" style="text;html=1;align=center;verticalAlign=middle;resizable=0;points=[];autosize=1;strokeColor=none;fillColor=none;rounded=0;sketch=1;curveFitting=1;jiggle=2;labelBackgroundColor=none;" parent="1" vertex="1">
          <mxGeometry x="3035" y="928" width="30" height="30" as="geometry" />
        </mxCell>
        <mxCell id="TKMVQjpAaQ59t7xjAut5-110" value="6" style="text;html=1;align=center;verticalAlign=middle;resizable=0;points=[];autosize=1;strokeColor=none;fillColor=none;rounded=0;sketch=1;curveFitting=1;jiggle=2;labelBackgroundColor=none;" parent="1" vertex="1">
          <mxGeometry x="3115" y="928" width="30" height="30" as="geometry" />
        </mxCell>
        <mxCell id="TKMVQjpAaQ59t7xjAut5-111" value="" style="endArrow=none;dashed=1;html=1;dashPattern=1 3;strokeWidth=2;rounded=0;sketch=1;curveFitting=1;jiggle=2;labelBackgroundColor=none;fontColor=default;" parent="1" edge="1">
          <mxGeometry width="50" height="50" relative="1" as="geometry">
            <mxPoint x="3190" y="890" as="sourcePoint" />
            <mxPoint x="3220" y="890" as="targetPoint" />
          </mxGeometry>
        </mxCell>
        <mxCell id="TKMVQjpAaQ59t7xjAut5-112" value="&#xa;&lt;span style=&quot;color: rgb(0, 0, 0); font-family: Helvetica; font-size: 12px; font-style: normal; font-variant-ligatures: normal; font-variant-caps: normal; font-weight: 400; letter-spacing: normal; orphans: 2; text-align: center; text-indent: 0px; text-transform: none; widows: 2; word-spacing: 0px; -webkit-text-stroke-width: 0px; white-space: normal; background-color: rgb(251, 251, 251); text-decoration-thickness: initial; text-decoration-style: initial; text-decoration-color: initial; display: inline !important; float: none;&quot;&gt;扇区&lt;/span&gt;&#xa;&#xa;" style="rounded=0;whiteSpace=wrap;html=1;sketch=1;curveFitting=1;jiggle=2;labelBackgroundColor=none;" parent="1" vertex="1">
          <mxGeometry x="2690" y="958" width="80" height="50" as="geometry" />
        </mxCell>
        <mxCell id="TKMVQjpAaQ59t7xjAut5-113" value="扇区" style="rounded=0;whiteSpace=wrap;html=1;sketch=1;curveFitting=1;jiggle=2;labelBackgroundColor=none;" parent="1" vertex="1">
          <mxGeometry x="2770" y="958" width="80" height="50" as="geometry" />
        </mxCell>
        <mxCell id="TKMVQjpAaQ59t7xjAut5-114" value="扇区" style="rounded=0;whiteSpace=wrap;html=1;sketch=1;curveFitting=1;jiggle=2;labelBackgroundColor=none;" parent="1" vertex="1">
          <mxGeometry x="2850" y="958" width="80" height="50" as="geometry" />
        </mxCell>
        <mxCell id="TKMVQjpAaQ59t7xjAut5-115" value="1" style="text;html=1;align=center;verticalAlign=middle;resizable=0;points=[];autosize=1;strokeColor=none;fillColor=none;rounded=0;sketch=1;curveFitting=1;jiggle=2;labelBackgroundColor=none;" parent="1" vertex="1">
          <mxGeometry x="2715" y="1026" width="30" height="30" as="geometry" />
        </mxCell>
        <mxCell id="TKMVQjpAaQ59t7xjAut5-116" value="2" style="text;html=1;align=center;verticalAlign=middle;resizable=0;points=[];autosize=1;strokeColor=none;fillColor=none;rounded=0;sketch=1;curveFitting=1;jiggle=2;labelBackgroundColor=none;" parent="1" vertex="1">
          <mxGeometry x="2795" y="1026" width="30" height="30" as="geometry" />
        </mxCell>
        <mxCell id="TKMVQjpAaQ59t7xjAut5-117" value="3" style="text;html=1;align=center;verticalAlign=middle;resizable=0;points=[];autosize=1;strokeColor=none;fillColor=none;rounded=0;sketch=1;curveFitting=1;jiggle=2;labelBackgroundColor=none;" parent="1" vertex="1">
          <mxGeometry x="2875" y="1026" width="30" height="30" as="geometry" />
        </mxCell>
        <mxCell id="TKMVQjpAaQ59t7xjAut5-118" value="4" style="text;html=1;align=center;verticalAlign=middle;resizable=0;points=[];autosize=1;strokeColor=none;fillColor=none;rounded=0;sketch=1;curveFitting=1;jiggle=2;labelBackgroundColor=none;" parent="1" vertex="1">
          <mxGeometry x="2955" y="1026" width="30" height="30" as="geometry" />
        </mxCell>
        <mxCell id="TKMVQjpAaQ59t7xjAut5-119" value="扇区" style="rounded=0;whiteSpace=wrap;html=1;sketch=1;curveFitting=1;jiggle=2;labelBackgroundColor=none;" parent="1" vertex="1">
          <mxGeometry x="2930" y="958" width="80" height="50" as="geometry" />
        </mxCell>
        <mxCell id="TKMVQjpAaQ59t7xjAut5-120" value="扇区" style="rounded=0;whiteSpace=wrap;html=1;sketch=1;curveFitting=1;jiggle=2;labelBackgroundColor=none;" parent="1" vertex="1">
          <mxGeometry x="3010" y="958" width="80" height="50" as="geometry" />
        </mxCell>
        <mxCell id="TKMVQjpAaQ59t7xjAut5-121" value="扇区" style="rounded=0;whiteSpace=wrap;html=1;sketch=1;curveFitting=1;jiggle=2;labelBackgroundColor=none;" parent="1" vertex="1">
          <mxGeometry x="3090" y="958" width="80" height="50" as="geometry" />
        </mxCell>
        <mxCell id="TKMVQjpAaQ59t7xjAut5-122" value="5" style="text;html=1;align=center;verticalAlign=middle;resizable=0;points=[];autosize=1;strokeColor=none;fillColor=none;rounded=0;sketch=1;curveFitting=1;jiggle=2;labelBackgroundColor=none;" parent="1" vertex="1">
          <mxGeometry x="3035" y="1026" width="30" height="30" as="geometry" />
        </mxCell>
        <mxCell id="TKMVQjpAaQ59t7xjAut5-123" value="6" style="text;html=1;align=center;verticalAlign=middle;resizable=0;points=[];autosize=1;strokeColor=none;fillColor=none;rounded=0;sketch=1;curveFitting=1;jiggle=2;labelBackgroundColor=none;" parent="1" vertex="1">
          <mxGeometry x="3115" y="1026" width="30" height="30" as="geometry" />
        </mxCell>
        <mxCell id="TKMVQjpAaQ59t7xjAut5-124" value="" style="endArrow=none;dashed=1;html=1;dashPattern=1 3;strokeWidth=2;rounded=0;sketch=1;curveFitting=1;jiggle=2;labelBackgroundColor=none;fontColor=default;" parent="1" edge="1">
          <mxGeometry width="50" height="50" relative="1" as="geometry">
            <mxPoint x="3190" y="988" as="sourcePoint" />
            <mxPoint x="3220" y="988" as="targetPoint" />
          </mxGeometry>
        </mxCell>
        <mxCell id="TKMVQjpAaQ59t7xjAut5-125" value="扇区" style="rounded=0;whiteSpace=wrap;html=1;sketch=1;curveFitting=1;jiggle=2;labelBackgroundColor=none;" parent="1" vertex="1">
          <mxGeometry x="2690" y="1056" width="80" height="50" as="geometry" />
        </mxCell>
        <mxCell id="TKMVQjpAaQ59t7xjAut5-126" value="扇区" style="rounded=0;whiteSpace=wrap;html=1;sketch=1;curveFitting=1;jiggle=2;labelBackgroundColor=none;" parent="1" vertex="1">
          <mxGeometry x="2770" y="1056" width="80" height="50" as="geometry" />
        </mxCell>
        <mxCell id="TKMVQjpAaQ59t7xjAut5-127" value="扇区" style="rounded=0;whiteSpace=wrap;html=1;sketch=1;curveFitting=1;jiggle=2;labelBackgroundColor=none;" parent="1" vertex="1">
          <mxGeometry x="2850" y="1056" width="80" height="50" as="geometry" />
        </mxCell>
        <mxCell id="TKMVQjpAaQ59t7xjAut5-128" value="1" style="text;html=1;align=center;verticalAlign=middle;resizable=0;points=[];autosize=1;strokeColor=none;fillColor=none;rounded=0;sketch=1;curveFitting=1;jiggle=2;labelBackgroundColor=none;" parent="1" vertex="1">
          <mxGeometry x="2715" y="1124" width="30" height="30" as="geometry" />
        </mxCell>
        <mxCell id="TKMVQjpAaQ59t7xjAut5-129" value="2" style="text;html=1;align=center;verticalAlign=middle;resizable=0;points=[];autosize=1;strokeColor=none;fillColor=none;rounded=0;sketch=1;curveFitting=1;jiggle=2;labelBackgroundColor=none;" parent="1" vertex="1">
          <mxGeometry x="2795" y="1124" width="30" height="30" as="geometry" />
        </mxCell>
        <mxCell id="TKMVQjpAaQ59t7xjAut5-130" value="3" style="text;html=1;align=center;verticalAlign=middle;resizable=0;points=[];autosize=1;strokeColor=none;fillColor=none;rounded=0;sketch=1;curveFitting=1;jiggle=2;labelBackgroundColor=none;" parent="1" vertex="1">
          <mxGeometry x="2875" y="1124" width="30" height="30" as="geometry" />
        </mxCell>
        <mxCell id="TKMVQjpAaQ59t7xjAut5-131" value="4" style="text;html=1;align=center;verticalAlign=middle;resizable=0;points=[];autosize=1;strokeColor=none;fillColor=none;rounded=0;sketch=1;curveFitting=1;jiggle=2;labelBackgroundColor=none;" parent="1" vertex="1">
          <mxGeometry x="2955" y="1124" width="30" height="30" as="geometry" />
        </mxCell>
        <mxCell id="TKMVQjpAaQ59t7xjAut5-132" value="扇区" style="rounded=0;whiteSpace=wrap;html=1;sketch=1;curveFitting=1;jiggle=2;labelBackgroundColor=none;" parent="1" vertex="1">
          <mxGeometry x="2930" y="1056" width="80" height="50" as="geometry" />
        </mxCell>
        <mxCell id="TKMVQjpAaQ59t7xjAut5-133" value="扇区" style="rounded=0;whiteSpace=wrap;html=1;sketch=1;curveFitting=1;jiggle=2;labelBackgroundColor=none;" parent="1" vertex="1">
          <mxGeometry x="3010" y="1056" width="80" height="50" as="geometry" />
        </mxCell>
        <mxCell id="TKMVQjpAaQ59t7xjAut5-134" value="扇区" style="rounded=0;whiteSpace=wrap;html=1;sketch=1;curveFitting=1;jiggle=2;labelBackgroundColor=none;" parent="1" vertex="1">
          <mxGeometry x="3090" y="1056" width="80" height="50" as="geometry" />
        </mxCell>
        <mxCell id="TKMVQjpAaQ59t7xjAut5-135" value="5" style="text;html=1;align=center;verticalAlign=middle;resizable=0;points=[];autosize=1;strokeColor=none;fillColor=none;rounded=0;sketch=1;curveFitting=1;jiggle=2;labelBackgroundColor=none;" parent="1" vertex="1">
          <mxGeometry x="3035" y="1124" width="30" height="30" as="geometry" />
        </mxCell>
        <mxCell id="TKMVQjpAaQ59t7xjAut5-136" value="6" style="text;html=1;align=center;verticalAlign=middle;resizable=0;points=[];autosize=1;strokeColor=none;fillColor=none;rounded=0;sketch=1;curveFitting=1;jiggle=2;labelBackgroundColor=none;" parent="1" vertex="1">
          <mxGeometry x="3115" y="1124" width="30" height="30" as="geometry" />
        </mxCell>
        <mxCell id="TKMVQjpAaQ59t7xjAut5-137" value="" style="endArrow=none;dashed=1;html=1;dashPattern=1 3;strokeWidth=2;rounded=0;sketch=1;curveFitting=1;jiggle=2;labelBackgroundColor=none;fontColor=default;" parent="1" edge="1">
          <mxGeometry width="50" height="50" relative="1" as="geometry">
            <mxPoint x="3190" y="1086" as="sourcePoint" />
            <mxPoint x="3220" y="1086" as="targetPoint" />
          </mxGeometry>
        </mxCell>
        <mxCell id="TKMVQjpAaQ59t7xjAut5-138" value="1" style="text;html=1;align=center;verticalAlign=middle;resizable=0;points=[];autosize=1;strokeColor=none;fillColor=none;rounded=0;sketch=1;curveFitting=1;jiggle=2;labelBackgroundColor=none;" parent="1" vertex="1">
          <mxGeometry x="2625" y="868" width="30" height="30" as="geometry" />
        </mxCell>
        <mxCell id="TKMVQjpAaQ59t7xjAut5-139" value="2" style="text;html=1;align=center;verticalAlign=middle;resizable=0;points=[];autosize=1;strokeColor=none;fillColor=none;rounded=0;sketch=1;curveFitting=1;jiggle=2;labelBackgroundColor=none;" parent="1" vertex="1">
          <mxGeometry x="2625" y="968" width="30" height="30" as="geometry" />
        </mxCell>
        <mxCell id="TKMVQjpAaQ59t7xjAut5-140" value="3" style="text;html=1;align=center;verticalAlign=middle;resizable=0;points=[];autosize=1;strokeColor=none;fillColor=none;rounded=0;sketch=1;curveFitting=1;jiggle=2;labelBackgroundColor=none;" parent="1" vertex="1">
          <mxGeometry x="2625" y="1068" width="30" height="30" as="geometry" />
        </mxCell>
        <mxCell id="TKMVQjpAaQ59t7xjAut5-141" value="扇区" style="rounded=0;whiteSpace=wrap;html=1;sketch=1;curveFitting=1;jiggle=2;labelBackgroundColor=none;" parent="1" vertex="1">
          <mxGeometry x="2690" y="1154" width="80" height="50" as="geometry" />
        </mxCell>
        <mxCell id="TKMVQjpAaQ59t7xjAut5-142" value="扇区" style="rounded=0;whiteSpace=wrap;html=1;sketch=1;curveFitting=1;jiggle=2;labelBackgroundColor=none;" parent="1" vertex="1">
          <mxGeometry x="2770" y="1154" width="80" height="50" as="geometry" />
        </mxCell>
        <mxCell id="TKMVQjpAaQ59t7xjAut5-143" value="扇区" style="rounded=0;whiteSpace=wrap;html=1;sketch=1;curveFitting=1;jiggle=2;labelBackgroundColor=none;" parent="1" vertex="1">
          <mxGeometry x="2850" y="1154" width="80" height="50" as="geometry" />
        </mxCell>
        <mxCell id="TKMVQjpAaQ59t7xjAut5-144" value="1" style="text;html=1;align=center;verticalAlign=middle;resizable=0;points=[];autosize=1;strokeColor=none;fillColor=none;rounded=0;sketch=1;curveFitting=1;jiggle=2;labelBackgroundColor=none;" parent="1" vertex="1">
          <mxGeometry x="2715" y="1222" width="30" height="30" as="geometry" />
        </mxCell>
        <mxCell id="TKMVQjpAaQ59t7xjAut5-145" value="2" style="text;html=1;align=center;verticalAlign=middle;resizable=0;points=[];autosize=1;strokeColor=none;fillColor=none;rounded=0;sketch=1;curveFitting=1;jiggle=2;labelBackgroundColor=none;" parent="1" vertex="1">
          <mxGeometry x="2795" y="1222" width="30" height="30" as="geometry" />
        </mxCell>
        <mxCell id="TKMVQjpAaQ59t7xjAut5-146" value="3" style="text;html=1;align=center;verticalAlign=middle;resizable=0;points=[];autosize=1;strokeColor=none;fillColor=none;rounded=0;sketch=1;curveFitting=1;jiggle=2;labelBackgroundColor=none;" parent="1" vertex="1">
          <mxGeometry x="2875" y="1222" width="30" height="30" as="geometry" />
        </mxCell>
        <mxCell id="TKMVQjpAaQ59t7xjAut5-147" value="4" style="text;html=1;align=center;verticalAlign=middle;resizable=0;points=[];autosize=1;strokeColor=none;fillColor=none;rounded=0;sketch=1;curveFitting=1;jiggle=2;labelBackgroundColor=none;" parent="1" vertex="1">
          <mxGeometry x="2955" y="1222" width="30" height="30" as="geometry" />
        </mxCell>
        <mxCell id="TKMVQjpAaQ59t7xjAut5-148" value="扇区" style="rounded=0;whiteSpace=wrap;html=1;sketch=1;curveFitting=1;jiggle=2;labelBackgroundColor=none;" parent="1" vertex="1">
          <mxGeometry x="2930" y="1154" width="80" height="50" as="geometry" />
        </mxCell>
        <mxCell id="TKMVQjpAaQ59t7xjAut5-149" value="扇区" style="rounded=0;whiteSpace=wrap;html=1;sketch=1;curveFitting=1;jiggle=2;labelBackgroundColor=none;" parent="1" vertex="1">
          <mxGeometry x="3010" y="1154" width="80" height="50" as="geometry" />
        </mxCell>
        <mxCell id="TKMVQjpAaQ59t7xjAut5-150" value="扇区" style="rounded=0;whiteSpace=wrap;html=1;sketch=1;curveFitting=1;jiggle=2;labelBackgroundColor=none;" parent="1" vertex="1">
          <mxGeometry x="3090" y="1154" width="80" height="50" as="geometry" />
        </mxCell>
        <mxCell id="TKMVQjpAaQ59t7xjAut5-151" value="5" style="text;html=1;align=center;verticalAlign=middle;resizable=0;points=[];autosize=1;strokeColor=none;fillColor=none;rounded=0;sketch=1;curveFitting=1;jiggle=2;labelBackgroundColor=none;" parent="1" vertex="1">
          <mxGeometry x="3035" y="1222" width="30" height="30" as="geometry" />
        </mxCell>
        <mxCell id="TKMVQjpAaQ59t7xjAut5-152" value="6" style="text;html=1;align=center;verticalAlign=middle;resizable=0;points=[];autosize=1;strokeColor=none;fillColor=none;rounded=0;sketch=1;curveFitting=1;jiggle=2;labelBackgroundColor=none;" parent="1" vertex="1">
          <mxGeometry x="3115" y="1222" width="30" height="30" as="geometry" />
        </mxCell>
        <mxCell id="TKMVQjpAaQ59t7xjAut5-153" value="" style="endArrow=none;dashed=1;html=1;dashPattern=1 3;strokeWidth=2;rounded=0;sketch=1;curveFitting=1;jiggle=2;labelBackgroundColor=none;fontColor=default;" parent="1" edge="1">
          <mxGeometry width="50" height="50" relative="1" as="geometry">
            <mxPoint x="3190" y="1184" as="sourcePoint" />
            <mxPoint x="3220" y="1184" as="targetPoint" />
          </mxGeometry>
        </mxCell>
        <mxCell id="TKMVQjpAaQ59t7xjAut5-154" value="4" style="text;html=1;align=center;verticalAlign=middle;resizable=0;points=[];autosize=1;strokeColor=none;fillColor=none;rounded=0;sketch=1;curveFitting=1;jiggle=2;labelBackgroundColor=none;" parent="1" vertex="1">
          <mxGeometry x="2625" y="1166" width="30" height="30" as="geometry" />
        </mxCell>
        <mxCell id="TKMVQjpAaQ59t7xjAut5-155" value="" style="endArrow=none;dashed=1;html=1;dashPattern=1 3;strokeWidth=2;rounded=0;sketch=1;curveFitting=1;jiggle=2;labelBackgroundColor=none;fontColor=default;" parent="1" edge="1">
          <mxGeometry width="50" height="50" relative="1" as="geometry">
            <mxPoint x="2640" y="1218" as="sourcePoint" />
            <mxPoint x="2640" y="1248" as="targetPoint" />
          </mxGeometry>
        </mxCell>
        <mxCell id="TKMVQjpAaQ59t7xjAut5-156" value="0号盘面磁道展开" style="text;html=1;align=center;verticalAlign=middle;resizable=0;points=[];autosize=1;strokeColor=none;fillColor=none;rounded=0;sketch=1;curveFitting=1;jiggle=2;labelBackgroundColor=none;" parent="1" vertex="1">
          <mxGeometry x="2440" y="920" width="110" height="30" as="geometry" />
        </mxCell>
        <mxCell id="TKMVQjpAaQ59t7xjAut5-157" value="1号盘面磁道展开" style="text;html=1;align=center;verticalAlign=middle;resizable=0;points=[];autosize=1;strokeColor=none;fillColor=none;rounded=0;sketch=1;curveFitting=1;jiggle=2;labelBackgroundColor=none;" parent="1" vertex="1">
          <mxGeometry x="2440" y="1110" width="110" height="30" as="geometry" />
        </mxCell>
        <mxCell id="TKMVQjpAaQ59t7xjAut5-158" value="" style="endArrow=classic;html=1;rounded=0;exitX=1.021;exitY=0.05;exitDx=0;exitDy=0;exitPerimeter=0;entryX=-0.137;entryY=0.598;entryDx=0;entryDy=0;entryPerimeter=0;sketch=1;curveFitting=1;jiggle=2;labelBackgroundColor=none;fontColor=default;" parent="1" source="TKMVQjpAaQ59t7xjAut5-157" target="TKMVQjpAaQ59t7xjAut5-140" edge="1">
          <mxGeometry width="50" height="50" relative="1" as="geometry">
            <mxPoint x="3050" y="1090" as="sourcePoint" />
            <mxPoint x="3100" y="1040" as="targetPoint" />
          </mxGeometry>
        </mxCell>
        <mxCell id="TKMVQjpAaQ59t7xjAut5-159" value="" style="endArrow=classic;html=1;rounded=0;exitX=0.997;exitY=0.006;exitDx=0;exitDy=0;exitPerimeter=0;entryX=-0.137;entryY=0.598;entryDx=0;entryDy=0;entryPerimeter=0;sketch=1;curveFitting=1;jiggle=2;labelBackgroundColor=none;fontColor=default;" parent="1" source="TKMVQjpAaQ59t7xjAut5-156" edge="1">
          <mxGeometry width="50" height="50" relative="1" as="geometry">
            <mxPoint x="2575" y="924" as="sourcePoint" />
            <mxPoint x="2625" y="890" as="targetPoint" />
          </mxGeometry>
        </mxCell>
        <mxCell id="TKMVQjpAaQ59t7xjAut5-160" value="" style="endArrow=classic;html=1;rounded=0;exitX=1.029;exitY=0.92;exitDx=0;exitDy=0;exitPerimeter=0;entryX=-0.044;entryY=0.146;entryDx=0;entryDy=0;entryPerimeter=0;sketch=1;curveFitting=1;jiggle=2;labelBackgroundColor=none;fontColor=default;" parent="1" source="TKMVQjpAaQ59t7xjAut5-157" target="TKMVQjpAaQ59t7xjAut5-154" edge="1">
          <mxGeometry width="50" height="50" relative="1" as="geometry">
            <mxPoint x="2581" y="1130" as="sourcePoint" />
            <mxPoint x="2631" y="1096" as="targetPoint" />
          </mxGeometry>
        </mxCell>
        <mxCell id="TKMVQjpAaQ59t7xjAut5-161" value="" style="endArrow=classic;html=1;rounded=0;exitX=1.021;exitY=0.876;exitDx=0;exitDy=0;exitPerimeter=0;entryX=-0.044;entryY=0.146;entryDx=0;entryDy=0;entryPerimeter=0;sketch=1;curveFitting=1;jiggle=2;labelBackgroundColor=none;fontColor=default;" parent="1" source="TKMVQjpAaQ59t7xjAut5-156" edge="1">
          <mxGeometry width="50" height="50" relative="1" as="geometry">
            <mxPoint x="2574" y="958" as="sourcePoint" />
            <mxPoint x="2625" y="979" as="targetPoint" />
          </mxGeometry>
        </mxCell>
        <mxCell id="TKMVQjpAaQ59t7xjAut5-162" value="" style="endArrow=none;html=1;rounded=0;sketch=1;curveFitting=1;jiggle=2;labelBackgroundColor=none;fontColor=default;" parent="1" edge="1">
          <mxGeometry width="50" height="50" relative="1" as="geometry">
            <mxPoint x="2420" y="850" as="sourcePoint" />
            <mxPoint x="3260" y="850" as="targetPoint" />
          </mxGeometry>
        </mxCell>
        <mxCell id="TKMVQjpAaQ59t7xjAut5-163" value="" style="endArrow=none;html=1;rounded=0;sketch=1;curveFitting=1;jiggle=2;labelBackgroundColor=none;fontColor=default;" parent="1" edge="1">
          <mxGeometry width="50" height="50" relative="1" as="geometry">
            <mxPoint x="2420" y="1251" as="sourcePoint" />
            <mxPoint x="3260" y="1251.17" as="targetPoint" />
          </mxGeometry>
        </mxCell>
        <mxCell id="TKMVQjpAaQ59t7xjAut5-164" value="" style="endArrow=none;html=1;rounded=0;sketch=1;curveFitting=1;jiggle=2;labelBackgroundColor=none;fontColor=default;" parent="1" edge="1">
          <mxGeometry width="50" height="50" relative="1" as="geometry">
            <mxPoint x="3260" y="850" as="sourcePoint" />
            <mxPoint x="3260" y="1250" as="targetPoint" />
          </mxGeometry>
        </mxCell>
        <mxCell id="TKMVQjpAaQ59t7xjAut5-165" value="" style="endArrow=none;html=1;rounded=0;sketch=1;curveFitting=1;jiggle=2;labelBackgroundColor=none;fontColor=default;" parent="1" edge="1">
          <mxGeometry width="50" height="50" relative="1" as="geometry">
            <mxPoint x="2420" y="852" as="sourcePoint" />
            <mxPoint x="2420" y="1252" as="targetPoint" />
          </mxGeometry>
        </mxCell>
        <mxCell id="TKMVQjpAaQ59t7xjAut5-166" value="&lt;font style=&quot;font-size: 24px;&quot;&gt;柱面二&lt;/font&gt;" style="text;html=1;align=center;verticalAlign=middle;resizable=0;points=[];autosize=1;strokeColor=none;fillColor=none;rounded=0;sketch=1;curveFitting=1;jiggle=2;labelBackgroundColor=none;" parent="1" vertex="1">
          <mxGeometry x="2780" y="1252" width="100" height="40" as="geometry" />
        </mxCell>
        <mxCell id="TKMVQjpAaQ59t7xjAut5-167" value="扇区" style="rounded=0;whiteSpace=wrap;html=1;sketch=1;curveFitting=1;jiggle=2;labelBackgroundColor=none;" parent="1" vertex="1">
          <mxGeometry x="2690" y="1312" width="80" height="50" as="geometry" />
        </mxCell>
        <mxCell id="TKMVQjpAaQ59t7xjAut5-168" value="扇区" style="rounded=0;whiteSpace=wrap;html=1;sketch=1;curveFitting=1;jiggle=2;labelBackgroundColor=none;" parent="1" vertex="1">
          <mxGeometry x="2770" y="1312" width="80" height="50" as="geometry" />
        </mxCell>
        <mxCell id="TKMVQjpAaQ59t7xjAut5-169" value="扇区" style="rounded=0;whiteSpace=wrap;html=1;sketch=1;curveFitting=1;jiggle=2;labelBackgroundColor=none;" parent="1" vertex="1">
          <mxGeometry x="2850" y="1312" width="80" height="50" as="geometry" />
        </mxCell>
        <mxCell id="TKMVQjpAaQ59t7xjAut5-170" value="1" style="text;html=1;align=center;verticalAlign=middle;resizable=0;points=[];autosize=1;strokeColor=none;fillColor=none;rounded=0;sketch=1;curveFitting=1;jiggle=2;labelBackgroundColor=none;" parent="1" vertex="1">
          <mxGeometry x="2715" y="1380" width="30" height="30" as="geometry" />
        </mxCell>
        <mxCell id="TKMVQjpAaQ59t7xjAut5-171" value="2" style="text;html=1;align=center;verticalAlign=middle;resizable=0;points=[];autosize=1;strokeColor=none;fillColor=none;rounded=0;sketch=1;curveFitting=1;jiggle=2;labelBackgroundColor=none;" parent="1" vertex="1">
          <mxGeometry x="2795" y="1380" width="30" height="30" as="geometry" />
        </mxCell>
        <mxCell id="TKMVQjpAaQ59t7xjAut5-172" value="3" style="text;html=1;align=center;verticalAlign=middle;resizable=0;points=[];autosize=1;strokeColor=none;fillColor=none;rounded=0;sketch=1;curveFitting=1;jiggle=2;labelBackgroundColor=none;" parent="1" vertex="1">
          <mxGeometry x="2875" y="1380" width="30" height="30" as="geometry" />
        </mxCell>
        <mxCell id="TKMVQjpAaQ59t7xjAut5-173" value="4" style="text;html=1;align=center;verticalAlign=middle;resizable=0;points=[];autosize=1;strokeColor=none;fillColor=none;rounded=0;sketch=1;curveFitting=1;jiggle=2;labelBackgroundColor=none;" parent="1" vertex="1">
          <mxGeometry x="2955" y="1380" width="30" height="30" as="geometry" />
        </mxCell>
        <mxCell id="TKMVQjpAaQ59t7xjAut5-174" value="扇区" style="rounded=0;whiteSpace=wrap;html=1;sketch=1;curveFitting=1;jiggle=2;labelBackgroundColor=none;" parent="1" vertex="1">
          <mxGeometry x="2930" y="1312" width="80" height="50" as="geometry" />
        </mxCell>
        <mxCell id="TKMVQjpAaQ59t7xjAut5-175" value="扇区" style="rounded=0;whiteSpace=wrap;html=1;sketch=1;curveFitting=1;jiggle=2;labelBackgroundColor=none;" parent="1" vertex="1">
          <mxGeometry x="3010" y="1312" width="80" height="50" as="geometry" />
        </mxCell>
        <mxCell id="TKMVQjpAaQ59t7xjAut5-176" value="扇区" style="rounded=0;whiteSpace=wrap;html=1;sketch=1;curveFitting=1;jiggle=2;labelBackgroundColor=none;" parent="1" vertex="1">
          <mxGeometry x="3090" y="1312" width="80" height="50" as="geometry" />
        </mxCell>
        <mxCell id="TKMVQjpAaQ59t7xjAut5-177" value="5" style="text;html=1;align=center;verticalAlign=middle;resizable=0;points=[];autosize=1;strokeColor=none;fillColor=none;rounded=0;sketch=1;curveFitting=1;jiggle=2;labelBackgroundColor=none;" parent="1" vertex="1">
          <mxGeometry x="3035" y="1380" width="30" height="30" as="geometry" />
        </mxCell>
        <mxCell id="TKMVQjpAaQ59t7xjAut5-178" value="6" style="text;html=1;align=center;verticalAlign=middle;resizable=0;points=[];autosize=1;strokeColor=none;fillColor=none;rounded=0;sketch=1;curveFitting=1;jiggle=2;labelBackgroundColor=none;" parent="1" vertex="1">
          <mxGeometry x="3115" y="1380" width="30" height="30" as="geometry" />
        </mxCell>
        <mxCell id="TKMVQjpAaQ59t7xjAut5-179" value="" style="endArrow=none;dashed=1;html=1;dashPattern=1 3;strokeWidth=2;rounded=0;sketch=1;curveFitting=1;jiggle=2;labelBackgroundColor=none;fontColor=default;" parent="1" edge="1">
          <mxGeometry width="50" height="50" relative="1" as="geometry">
            <mxPoint x="3190" y="1342" as="sourcePoint" />
            <mxPoint x="3220" y="1342" as="targetPoint" />
          </mxGeometry>
        </mxCell>
        <mxCell id="TKMVQjpAaQ59t7xjAut5-180" value="&#xa;&lt;span style=&quot;color: rgb(0, 0, 0); font-family: Helvetica; font-size: 12px; font-style: normal; font-variant-ligatures: normal; font-variant-caps: normal; font-weight: 400; letter-spacing: normal; orphans: 2; text-align: center; text-indent: 0px; text-transform: none; widows: 2; word-spacing: 0px; -webkit-text-stroke-width: 0px; white-space: normal; background-color: rgb(251, 251, 251); text-decoration-thickness: initial; text-decoration-style: initial; text-decoration-color: initial; display: inline !important; float: none;&quot;&gt;扇区&lt;/span&gt;&#xa;&#xa;" style="rounded=0;whiteSpace=wrap;html=1;sketch=1;curveFitting=1;jiggle=2;labelBackgroundColor=none;" parent="1" vertex="1">
          <mxGeometry x="2690" y="1410" width="80" height="50" as="geometry" />
        </mxCell>
        <mxCell id="TKMVQjpAaQ59t7xjAut5-181" value="扇区" style="rounded=0;whiteSpace=wrap;html=1;sketch=1;curveFitting=1;jiggle=2;labelBackgroundColor=none;" parent="1" vertex="1">
          <mxGeometry x="2770" y="1410" width="80" height="50" as="geometry" />
        </mxCell>
        <mxCell id="TKMVQjpAaQ59t7xjAut5-182" value="扇区" style="rounded=0;whiteSpace=wrap;html=1;sketch=1;curveFitting=1;jiggle=2;labelBackgroundColor=none;" parent="1" vertex="1">
          <mxGeometry x="2850" y="1410" width="80" height="50" as="geometry" />
        </mxCell>
        <mxCell id="TKMVQjpAaQ59t7xjAut5-183" value="1" style="text;html=1;align=center;verticalAlign=middle;resizable=0;points=[];autosize=1;strokeColor=none;fillColor=none;rounded=0;sketch=1;curveFitting=1;jiggle=2;labelBackgroundColor=none;" parent="1" vertex="1">
          <mxGeometry x="2715" y="1478" width="30" height="30" as="geometry" />
        </mxCell>
        <mxCell id="TKMVQjpAaQ59t7xjAut5-184" value="2" style="text;html=1;align=center;verticalAlign=middle;resizable=0;points=[];autosize=1;strokeColor=none;fillColor=none;rounded=0;sketch=1;curveFitting=1;jiggle=2;labelBackgroundColor=none;" parent="1" vertex="1">
          <mxGeometry x="2795" y="1478" width="30" height="30" as="geometry" />
        </mxCell>
        <mxCell id="TKMVQjpAaQ59t7xjAut5-185" value="3" style="text;html=1;align=center;verticalAlign=middle;resizable=0;points=[];autosize=1;strokeColor=none;fillColor=none;rounded=0;sketch=1;curveFitting=1;jiggle=2;labelBackgroundColor=none;" parent="1" vertex="1">
          <mxGeometry x="2875" y="1478" width="30" height="30" as="geometry" />
        </mxCell>
        <mxCell id="TKMVQjpAaQ59t7xjAut5-186" value="4" style="text;html=1;align=center;verticalAlign=middle;resizable=0;points=[];autosize=1;strokeColor=none;fillColor=none;rounded=0;sketch=1;curveFitting=1;jiggle=2;labelBackgroundColor=none;" parent="1" vertex="1">
          <mxGeometry x="2955" y="1478" width="30" height="30" as="geometry" />
        </mxCell>
        <mxCell id="TKMVQjpAaQ59t7xjAut5-187" value="扇区" style="rounded=0;whiteSpace=wrap;html=1;sketch=1;curveFitting=1;jiggle=2;labelBackgroundColor=none;" parent="1" vertex="1">
          <mxGeometry x="2930" y="1410" width="80" height="50" as="geometry" />
        </mxCell>
        <mxCell id="TKMVQjpAaQ59t7xjAut5-188" value="扇区" style="rounded=0;whiteSpace=wrap;html=1;sketch=1;curveFitting=1;jiggle=2;labelBackgroundColor=none;" parent="1" vertex="1">
          <mxGeometry x="3010" y="1410" width="80" height="50" as="geometry" />
        </mxCell>
        <mxCell id="TKMVQjpAaQ59t7xjAut5-189" value="扇区" style="rounded=0;whiteSpace=wrap;html=1;sketch=1;curveFitting=1;jiggle=2;labelBackgroundColor=none;" parent="1" vertex="1">
          <mxGeometry x="3090" y="1410" width="80" height="50" as="geometry" />
        </mxCell>
        <mxCell id="TKMVQjpAaQ59t7xjAut5-190" value="5" style="text;html=1;align=center;verticalAlign=middle;resizable=0;points=[];autosize=1;strokeColor=none;fillColor=none;rounded=0;sketch=1;curveFitting=1;jiggle=2;labelBackgroundColor=none;" parent="1" vertex="1">
          <mxGeometry x="3035" y="1478" width="30" height="30" as="geometry" />
        </mxCell>
        <mxCell id="TKMVQjpAaQ59t7xjAut5-191" value="6" style="text;html=1;align=center;verticalAlign=middle;resizable=0;points=[];autosize=1;strokeColor=none;fillColor=none;rounded=0;sketch=1;curveFitting=1;jiggle=2;labelBackgroundColor=none;" parent="1" vertex="1">
          <mxGeometry x="3115" y="1478" width="30" height="30" as="geometry" />
        </mxCell>
        <mxCell id="TKMVQjpAaQ59t7xjAut5-192" value="" style="endArrow=none;dashed=1;html=1;dashPattern=1 3;strokeWidth=2;rounded=0;sketch=1;curveFitting=1;jiggle=2;labelBackgroundColor=none;fontColor=default;" parent="1" edge="1">
          <mxGeometry width="50" height="50" relative="1" as="geometry">
            <mxPoint x="3190" y="1440" as="sourcePoint" />
            <mxPoint x="3220" y="1440" as="targetPoint" />
          </mxGeometry>
        </mxCell>
        <mxCell id="TKMVQjpAaQ59t7xjAut5-193" value="扇区" style="rounded=0;whiteSpace=wrap;html=1;sketch=1;curveFitting=1;jiggle=2;labelBackgroundColor=none;" parent="1" vertex="1">
          <mxGeometry x="2690" y="1508" width="80" height="50" as="geometry" />
        </mxCell>
        <mxCell id="TKMVQjpAaQ59t7xjAut5-194" value="扇区" style="rounded=0;whiteSpace=wrap;html=1;sketch=1;curveFitting=1;jiggle=2;labelBackgroundColor=none;" parent="1" vertex="1">
          <mxGeometry x="2770" y="1508" width="80" height="50" as="geometry" />
        </mxCell>
        <mxCell id="TKMVQjpAaQ59t7xjAut5-195" value="扇区" style="rounded=0;whiteSpace=wrap;html=1;sketch=1;curveFitting=1;jiggle=2;labelBackgroundColor=none;" parent="1" vertex="1">
          <mxGeometry x="2850" y="1508" width="80" height="50" as="geometry" />
        </mxCell>
        <mxCell id="TKMVQjpAaQ59t7xjAut5-196" value="1" style="text;html=1;align=center;verticalAlign=middle;resizable=0;points=[];autosize=1;strokeColor=none;fillColor=none;rounded=0;sketch=1;curveFitting=1;jiggle=2;labelBackgroundColor=none;" parent="1" vertex="1">
          <mxGeometry x="2715" y="1576" width="30" height="30" as="geometry" />
        </mxCell>
        <mxCell id="TKMVQjpAaQ59t7xjAut5-197" value="2" style="text;html=1;align=center;verticalAlign=middle;resizable=0;points=[];autosize=1;strokeColor=none;fillColor=none;rounded=0;sketch=1;curveFitting=1;jiggle=2;labelBackgroundColor=none;" parent="1" vertex="1">
          <mxGeometry x="2795" y="1576" width="30" height="30" as="geometry" />
        </mxCell>
        <mxCell id="TKMVQjpAaQ59t7xjAut5-198" value="3" style="text;html=1;align=center;verticalAlign=middle;resizable=0;points=[];autosize=1;strokeColor=none;fillColor=none;rounded=0;sketch=1;curveFitting=1;jiggle=2;labelBackgroundColor=none;" parent="1" vertex="1">
          <mxGeometry x="2875" y="1576" width="30" height="30" as="geometry" />
        </mxCell>
        <mxCell id="TKMVQjpAaQ59t7xjAut5-199" value="4" style="text;html=1;align=center;verticalAlign=middle;resizable=0;points=[];autosize=1;strokeColor=none;fillColor=none;rounded=0;sketch=1;curveFitting=1;jiggle=2;labelBackgroundColor=none;" parent="1" vertex="1">
          <mxGeometry x="2955" y="1576" width="30" height="30" as="geometry" />
        </mxCell>
        <mxCell id="TKMVQjpAaQ59t7xjAut5-200" value="扇区" style="rounded=0;whiteSpace=wrap;html=1;sketch=1;curveFitting=1;jiggle=2;labelBackgroundColor=none;" parent="1" vertex="1">
          <mxGeometry x="2930" y="1508" width="80" height="50" as="geometry" />
        </mxCell>
        <mxCell id="TKMVQjpAaQ59t7xjAut5-201" value="扇区" style="rounded=0;whiteSpace=wrap;html=1;sketch=1;curveFitting=1;jiggle=2;labelBackgroundColor=none;" parent="1" vertex="1">
          <mxGeometry x="3010" y="1508" width="80" height="50" as="geometry" />
        </mxCell>
        <mxCell id="TKMVQjpAaQ59t7xjAut5-202" value="扇区" style="rounded=0;whiteSpace=wrap;html=1;sketch=1;curveFitting=1;jiggle=2;labelBackgroundColor=none;" parent="1" vertex="1">
          <mxGeometry x="3090" y="1508" width="80" height="50" as="geometry" />
        </mxCell>
        <mxCell id="TKMVQjpAaQ59t7xjAut5-203" value="5" style="text;html=1;align=center;verticalAlign=middle;resizable=0;points=[];autosize=1;strokeColor=none;fillColor=none;rounded=0;sketch=1;curveFitting=1;jiggle=2;labelBackgroundColor=none;" parent="1" vertex="1">
          <mxGeometry x="3035" y="1576" width="30" height="30" as="geometry" />
        </mxCell>
        <mxCell id="TKMVQjpAaQ59t7xjAut5-204" value="6" style="text;html=1;align=center;verticalAlign=middle;resizable=0;points=[];autosize=1;strokeColor=none;fillColor=none;rounded=0;sketch=1;curveFitting=1;jiggle=2;labelBackgroundColor=none;" parent="1" vertex="1">
          <mxGeometry x="3115" y="1576" width="30" height="30" as="geometry" />
        </mxCell>
        <mxCell id="TKMVQjpAaQ59t7xjAut5-205" value="" style="endArrow=none;dashed=1;html=1;dashPattern=1 3;strokeWidth=2;rounded=0;sketch=1;curveFitting=1;jiggle=2;labelBackgroundColor=none;fontColor=default;" parent="1" edge="1">
          <mxGeometry width="50" height="50" relative="1" as="geometry">
            <mxPoint x="3190" y="1538" as="sourcePoint" />
            <mxPoint x="3220" y="1538" as="targetPoint" />
          </mxGeometry>
        </mxCell>
        <mxCell id="TKMVQjpAaQ59t7xjAut5-206" value="1" style="text;html=1;align=center;verticalAlign=middle;resizable=0;points=[];autosize=1;strokeColor=none;fillColor=none;rounded=0;sketch=1;curveFitting=1;jiggle=2;labelBackgroundColor=none;" parent="1" vertex="1">
          <mxGeometry x="2625" y="1320" width="30" height="30" as="geometry" />
        </mxCell>
        <mxCell id="TKMVQjpAaQ59t7xjAut5-207" value="2" style="text;html=1;align=center;verticalAlign=middle;resizable=0;points=[];autosize=1;strokeColor=none;fillColor=none;rounded=0;sketch=1;curveFitting=1;jiggle=2;labelBackgroundColor=none;" parent="1" vertex="1">
          <mxGeometry x="2625" y="1420" width="30" height="30" as="geometry" />
        </mxCell>
        <mxCell id="TKMVQjpAaQ59t7xjAut5-208" value="3" style="text;html=1;align=center;verticalAlign=middle;resizable=0;points=[];autosize=1;strokeColor=none;fillColor=none;rounded=0;sketch=1;curveFitting=1;jiggle=2;labelBackgroundColor=none;" parent="1" vertex="1">
          <mxGeometry x="2625" y="1520" width="30" height="30" as="geometry" />
        </mxCell>
        <mxCell id="TKMVQjpAaQ59t7xjAut5-209" value="扇区" style="rounded=0;whiteSpace=wrap;html=1;sketch=1;curveFitting=1;jiggle=2;labelBackgroundColor=none;" parent="1" vertex="1">
          <mxGeometry x="2690" y="1606" width="80" height="50" as="geometry" />
        </mxCell>
        <mxCell id="TKMVQjpAaQ59t7xjAut5-210" value="扇区" style="rounded=0;whiteSpace=wrap;html=1;sketch=1;curveFitting=1;jiggle=2;labelBackgroundColor=none;" parent="1" vertex="1">
          <mxGeometry x="2770" y="1606" width="80" height="50" as="geometry" />
        </mxCell>
        <mxCell id="TKMVQjpAaQ59t7xjAut5-211" value="扇区" style="rounded=0;whiteSpace=wrap;html=1;sketch=1;curveFitting=1;jiggle=2;labelBackgroundColor=none;" parent="1" vertex="1">
          <mxGeometry x="2850" y="1606" width="80" height="50" as="geometry" />
        </mxCell>
        <mxCell id="TKMVQjpAaQ59t7xjAut5-212" value="1" style="text;html=1;align=center;verticalAlign=middle;resizable=0;points=[];autosize=1;strokeColor=none;fillColor=none;rounded=0;sketch=1;curveFitting=1;jiggle=2;labelBackgroundColor=none;" parent="1" vertex="1">
          <mxGeometry x="2715" y="1674" width="30" height="30" as="geometry" />
        </mxCell>
        <mxCell id="TKMVQjpAaQ59t7xjAut5-213" value="2" style="text;html=1;align=center;verticalAlign=middle;resizable=0;points=[];autosize=1;strokeColor=none;fillColor=none;rounded=0;sketch=1;curveFitting=1;jiggle=2;labelBackgroundColor=none;" parent="1" vertex="1">
          <mxGeometry x="2795" y="1674" width="30" height="30" as="geometry" />
        </mxCell>
        <mxCell id="TKMVQjpAaQ59t7xjAut5-214" value="3" style="text;html=1;align=center;verticalAlign=middle;resizable=0;points=[];autosize=1;strokeColor=none;fillColor=none;rounded=0;sketch=1;curveFitting=1;jiggle=2;labelBackgroundColor=none;" parent="1" vertex="1">
          <mxGeometry x="2875" y="1674" width="30" height="30" as="geometry" />
        </mxCell>
        <mxCell id="TKMVQjpAaQ59t7xjAut5-215" value="4" style="text;html=1;align=center;verticalAlign=middle;resizable=0;points=[];autosize=1;strokeColor=none;fillColor=none;rounded=0;sketch=1;curveFitting=1;jiggle=2;labelBackgroundColor=none;" parent="1" vertex="1">
          <mxGeometry x="2955" y="1674" width="30" height="30" as="geometry" />
        </mxCell>
        <mxCell id="TKMVQjpAaQ59t7xjAut5-216" value="扇区" style="rounded=0;whiteSpace=wrap;html=1;sketch=1;curveFitting=1;jiggle=2;labelBackgroundColor=none;" parent="1" vertex="1">
          <mxGeometry x="2930" y="1606" width="80" height="50" as="geometry" />
        </mxCell>
        <mxCell id="TKMVQjpAaQ59t7xjAut5-217" value="扇区" style="rounded=0;whiteSpace=wrap;html=1;sketch=1;curveFitting=1;jiggle=2;labelBackgroundColor=none;" parent="1" vertex="1">
          <mxGeometry x="3010" y="1606" width="80" height="50" as="geometry" />
        </mxCell>
        <mxCell id="TKMVQjpAaQ59t7xjAut5-218" value="扇区" style="rounded=0;whiteSpace=wrap;html=1;sketch=1;curveFitting=1;jiggle=2;labelBackgroundColor=none;" parent="1" vertex="1">
          <mxGeometry x="3090" y="1606" width="80" height="50" as="geometry" />
        </mxCell>
        <mxCell id="TKMVQjpAaQ59t7xjAut5-219" value="5" style="text;html=1;align=center;verticalAlign=middle;resizable=0;points=[];autosize=1;strokeColor=none;fillColor=none;rounded=0;sketch=1;curveFitting=1;jiggle=2;labelBackgroundColor=none;" parent="1" vertex="1">
          <mxGeometry x="3035" y="1674" width="30" height="30" as="geometry" />
        </mxCell>
        <mxCell id="TKMVQjpAaQ59t7xjAut5-220" value="6" style="text;html=1;align=center;verticalAlign=middle;resizable=0;points=[];autosize=1;strokeColor=none;fillColor=none;rounded=0;sketch=1;curveFitting=1;jiggle=2;labelBackgroundColor=none;" parent="1" vertex="1">
          <mxGeometry x="3115" y="1674" width="30" height="30" as="geometry" />
        </mxCell>
        <mxCell id="TKMVQjpAaQ59t7xjAut5-221" value="" style="endArrow=none;dashed=1;html=1;dashPattern=1 3;strokeWidth=2;rounded=0;sketch=1;curveFitting=1;jiggle=2;labelBackgroundColor=none;fontColor=default;" parent="1" edge="1">
          <mxGeometry width="50" height="50" relative="1" as="geometry">
            <mxPoint x="3190" y="1636" as="sourcePoint" />
            <mxPoint x="3220" y="1636" as="targetPoint" />
          </mxGeometry>
        </mxCell>
        <mxCell id="TKMVQjpAaQ59t7xjAut5-222" value="4" style="text;html=1;align=center;verticalAlign=middle;resizable=0;points=[];autosize=1;strokeColor=none;fillColor=none;rounded=0;sketch=1;curveFitting=1;jiggle=2;labelBackgroundColor=none;" parent="1" vertex="1">
          <mxGeometry x="2625" y="1618" width="30" height="30" as="geometry" />
        </mxCell>
        <mxCell id="TKMVQjpAaQ59t7xjAut5-223" value="" style="endArrow=none;dashed=1;html=1;dashPattern=1 3;strokeWidth=2;rounded=0;sketch=1;curveFitting=1;jiggle=2;labelBackgroundColor=none;fontColor=default;" parent="1" edge="1">
          <mxGeometry width="50" height="50" relative="1" as="geometry">
            <mxPoint x="2640" y="1670" as="sourcePoint" />
            <mxPoint x="2640" y="1700" as="targetPoint" />
          </mxGeometry>
        </mxCell>
        <mxCell id="TKMVQjpAaQ59t7xjAut5-224" value="0号盘面磁道展开" style="text;html=1;align=center;verticalAlign=middle;resizable=0;points=[];autosize=1;strokeColor=none;fillColor=none;rounded=0;sketch=1;curveFitting=1;jiggle=2;labelBackgroundColor=none;" parent="1" vertex="1">
          <mxGeometry x="2440" y="1372" width="110" height="30" as="geometry" />
        </mxCell>
        <mxCell id="TKMVQjpAaQ59t7xjAut5-225" value="1号盘面磁道展开" style="text;html=1;align=center;verticalAlign=middle;resizable=0;points=[];autosize=1;strokeColor=none;fillColor=none;rounded=0;sketch=1;curveFitting=1;jiggle=2;labelBackgroundColor=none;" parent="1" vertex="1">
          <mxGeometry x="2440" y="1562" width="110" height="30" as="geometry" />
        </mxCell>
        <mxCell id="TKMVQjpAaQ59t7xjAut5-226" value="" style="endArrow=classic;html=1;rounded=0;exitX=1.021;exitY=0.05;exitDx=0;exitDy=0;exitPerimeter=0;entryX=-0.137;entryY=0.598;entryDx=0;entryDy=0;entryPerimeter=0;sketch=1;curveFitting=1;jiggle=2;labelBackgroundColor=none;fontColor=default;" parent="1" source="TKMVQjpAaQ59t7xjAut5-225" target="TKMVQjpAaQ59t7xjAut5-208" edge="1">
          <mxGeometry width="50" height="50" relative="1" as="geometry">
            <mxPoint x="3050" y="1542" as="sourcePoint" />
            <mxPoint x="3100" y="1492" as="targetPoint" />
          </mxGeometry>
        </mxCell>
        <mxCell id="TKMVQjpAaQ59t7xjAut5-227" value="" style="endArrow=classic;html=1;rounded=0;exitX=0.997;exitY=0.006;exitDx=0;exitDy=0;exitPerimeter=0;entryX=-0.137;entryY=0.598;entryDx=0;entryDy=0;entryPerimeter=0;sketch=1;curveFitting=1;jiggle=2;labelBackgroundColor=none;fontColor=default;" parent="1" source="TKMVQjpAaQ59t7xjAut5-224" edge="1">
          <mxGeometry width="50" height="50" relative="1" as="geometry">
            <mxPoint x="2575" y="1376" as="sourcePoint" />
            <mxPoint x="2625" y="1342" as="targetPoint" />
          </mxGeometry>
        </mxCell>
        <mxCell id="TKMVQjpAaQ59t7xjAut5-228" value="" style="endArrow=classic;html=1;rounded=0;exitX=1.029;exitY=0.92;exitDx=0;exitDy=0;exitPerimeter=0;entryX=-0.044;entryY=0.146;entryDx=0;entryDy=0;entryPerimeter=0;sketch=1;curveFitting=1;jiggle=2;labelBackgroundColor=none;fontColor=default;" parent="1" source="TKMVQjpAaQ59t7xjAut5-225" target="TKMVQjpAaQ59t7xjAut5-222" edge="1">
          <mxGeometry width="50" height="50" relative="1" as="geometry">
            <mxPoint x="2581" y="1582" as="sourcePoint" />
            <mxPoint x="2631" y="1548" as="targetPoint" />
          </mxGeometry>
        </mxCell>
        <mxCell id="TKMVQjpAaQ59t7xjAut5-229" value="" style="endArrow=classic;html=1;rounded=0;exitX=1.021;exitY=0.876;exitDx=0;exitDy=0;exitPerimeter=0;entryX=-0.044;entryY=0.146;entryDx=0;entryDy=0;entryPerimeter=0;sketch=1;curveFitting=1;jiggle=2;labelBackgroundColor=none;fontColor=default;" parent="1" source="TKMVQjpAaQ59t7xjAut5-224" edge="1">
          <mxGeometry width="50" height="50" relative="1" as="geometry">
            <mxPoint x="2574" y="1410" as="sourcePoint" />
            <mxPoint x="2625" y="1431" as="targetPoint" />
          </mxGeometry>
        </mxCell>
        <mxCell id="TKMVQjpAaQ59t7xjAut5-230" value="" style="endArrow=none;html=1;rounded=0;sketch=1;curveFitting=1;jiggle=2;labelBackgroundColor=none;fontColor=default;" parent="1" edge="1">
          <mxGeometry width="50" height="50" relative="1" as="geometry">
            <mxPoint x="2420" y="1302" as="sourcePoint" />
            <mxPoint x="3260" y="1302" as="targetPoint" />
          </mxGeometry>
        </mxCell>
        <mxCell id="TKMVQjpAaQ59t7xjAut5-231" value="" style="endArrow=none;html=1;rounded=0;sketch=1;curveFitting=1;jiggle=2;labelBackgroundColor=none;fontColor=default;" parent="1" edge="1">
          <mxGeometry width="50" height="50" relative="1" as="geometry">
            <mxPoint x="2420" y="1703" as="sourcePoint" />
            <mxPoint x="3260" y="1703.17" as="targetPoint" />
          </mxGeometry>
        </mxCell>
        <mxCell id="TKMVQjpAaQ59t7xjAut5-232" value="" style="endArrow=none;html=1;rounded=0;sketch=1;curveFitting=1;jiggle=2;labelBackgroundColor=none;fontColor=default;" parent="1" edge="1">
          <mxGeometry width="50" height="50" relative="1" as="geometry">
            <mxPoint x="3260" y="1302" as="sourcePoint" />
            <mxPoint x="3260" y="1702" as="targetPoint" />
          </mxGeometry>
        </mxCell>
        <mxCell id="TKMVQjpAaQ59t7xjAut5-233" value="" style="endArrow=none;html=1;rounded=0;sketch=1;curveFitting=1;jiggle=2;labelBackgroundColor=none;fontColor=default;" parent="1" edge="1">
          <mxGeometry width="50" height="50" relative="1" as="geometry">
            <mxPoint x="2420" y="1304" as="sourcePoint" />
            <mxPoint x="2420" y="1704" as="targetPoint" />
          </mxGeometry>
        </mxCell>
        <mxCell id="TKMVQjpAaQ59t7xjAut5-234" value="&lt;font style=&quot;font-size: 24px;&quot;&gt;柱面一&lt;/font&gt;" style="text;html=1;align=center;verticalAlign=middle;resizable=0;points=[];autosize=1;strokeColor=none;fillColor=none;rounded=0;sketch=1;curveFitting=1;jiggle=2;labelBackgroundColor=none;" parent="1" vertex="1">
          <mxGeometry x="2780" y="800" width="100" height="40" as="geometry" />
        </mxCell>
        <mxCell id="TKMVQjpAaQ59t7xjAut5-236" value="" style="endArrow=none;dashed=1;html=1;dashPattern=1 3;strokeWidth=2;rounded=0;sketch=1;curveFitting=1;jiggle=2;labelBackgroundColor=none;fontColor=default;" parent="1" edge="1">
          <mxGeometry width="50" height="50" relative="1" as="geometry">
            <mxPoint x="2850.77" y="1720" as="sourcePoint" />
            <mxPoint x="2850.77" y="1770" as="targetPoint" />
          </mxGeometry>
        </mxCell>
        <mxCell id="TKMVQjpAaQ59t7xjAut5-240" value="扇区" style="rounded=0;whiteSpace=wrap;html=1;sketch=1;curveFitting=1;jiggle=2;labelBackgroundColor=none;" parent="1" vertex="1">
          <mxGeometry x="1220" y="233" width="80" height="50" as="geometry" />
        </mxCell>
        <mxCell id="TKMVQjpAaQ59t7xjAut5-241" value="扇区" style="rounded=0;whiteSpace=wrap;html=1;sketch=1;curveFitting=1;jiggle=2;labelBackgroundColor=none;" parent="1" vertex="1">
          <mxGeometry x="1300" y="233" width="80" height="50" as="geometry" />
        </mxCell>
        <mxCell id="TKMVQjpAaQ59t7xjAut5-242" value="扇区" style="rounded=0;whiteSpace=wrap;html=1;sketch=1;curveFitting=1;jiggle=2;labelBackgroundColor=none;" parent="1" vertex="1">
          <mxGeometry x="1380" y="233" width="80" height="50" as="geometry" />
        </mxCell>
        <mxCell id="TKMVQjpAaQ59t7xjAut5-247" value="扇区" style="rounded=0;whiteSpace=wrap;html=1;sketch=1;curveFitting=1;jiggle=2;labelBackgroundColor=none;" parent="1" vertex="1">
          <mxGeometry x="1460" y="233" width="80" height="50" as="geometry" />
        </mxCell>
        <mxCell id="TKMVQjpAaQ59t7xjAut5-248" value="扇区" style="rounded=0;whiteSpace=wrap;html=1;sketch=1;curveFitting=1;jiggle=2;labelBackgroundColor=none;" parent="1" vertex="1">
          <mxGeometry x="1540" y="233" width="80" height="50" as="geometry" />
        </mxCell>
        <mxCell id="TKMVQjpAaQ59t7xjAut5-249" value="扇区" style="rounded=0;whiteSpace=wrap;html=1;sketch=1;curveFitting=1;jiggle=2;labelBackgroundColor=none;" parent="1" vertex="1">
          <mxGeometry x="1620" y="233" width="80" height="50" as="geometry" />
        </mxCell>
        <mxCell id="TKMVQjpAaQ59t7xjAut5-252" value="扇区" style="rounded=0;whiteSpace=wrap;html=1;sketch=1;curveFitting=1;jiggle=2;labelBackgroundColor=none;" parent="1" vertex="1">
          <mxGeometry x="1700" y="233" width="80" height="50" as="geometry" />
        </mxCell>
        <mxCell id="TKMVQjpAaQ59t7xjAut5-253" value="扇区" style="rounded=0;whiteSpace=wrap;html=1;sketch=1;curveFitting=1;jiggle=2;labelBackgroundColor=none;" parent="1" vertex="1">
          <mxGeometry x="1780" y="233" width="80" height="50" as="geometry" />
        </mxCell>
        <mxCell id="TKMVQjpAaQ59t7xjAut5-254" value="扇区" style="rounded=0;whiteSpace=wrap;html=1;sketch=1;curveFitting=1;jiggle=2;labelBackgroundColor=none;" parent="1" vertex="1">
          <mxGeometry x="1860" y="233" width="80" height="50" as="geometry" />
        </mxCell>
        <mxCell id="TKMVQjpAaQ59t7xjAut5-259" value="扇区" style="rounded=0;whiteSpace=wrap;html=1;sketch=1;curveFitting=1;jiggle=2;labelBackgroundColor=none;" parent="1" vertex="1">
          <mxGeometry x="1940" y="233" width="80" height="50" as="geometry" />
        </mxCell>
        <mxCell id="TKMVQjpAaQ59t7xjAut5-260" value="扇区" style="rounded=0;whiteSpace=wrap;html=1;sketch=1;curveFitting=1;jiggle=2;labelBackgroundColor=none;" parent="1" vertex="1">
          <mxGeometry x="2020" y="233" width="80" height="50" as="geometry" />
        </mxCell>
        <mxCell id="TKMVQjpAaQ59t7xjAut5-261" value="扇区" style="rounded=0;whiteSpace=wrap;html=1;sketch=1;curveFitting=1;jiggle=2;labelBackgroundColor=none;" parent="1" vertex="1">
          <mxGeometry x="2100" y="233" width="80" height="50" as="geometry" />
        </mxCell>
        <mxCell id="TKMVQjpAaQ59t7xjAut5-264" value="扇区" style="rounded=0;whiteSpace=wrap;html=1;sketch=1;curveFitting=1;jiggle=2;labelBackgroundColor=none;" parent="1" vertex="1">
          <mxGeometry x="2180" y="233" width="80" height="50" as="geometry" />
        </mxCell>
        <mxCell id="TKMVQjpAaQ59t7xjAut5-265" value="扇区" style="rounded=0;whiteSpace=wrap;html=1;sketch=1;curveFitting=1;jiggle=2;labelBackgroundColor=none;" parent="1" vertex="1">
          <mxGeometry x="2260" y="233" width="80" height="50" as="geometry" />
        </mxCell>
        <mxCell id="TKMVQjpAaQ59t7xjAut5-266" value="扇区" style="rounded=0;whiteSpace=wrap;html=1;sketch=1;curveFitting=1;jiggle=2;labelBackgroundColor=none;" parent="1" vertex="1">
          <mxGeometry x="2340" y="233" width="80" height="50" as="geometry" />
        </mxCell>
        <mxCell id="TKMVQjpAaQ59t7xjAut5-271" value="扇区" style="rounded=0;whiteSpace=wrap;html=1;sketch=1;curveFitting=1;jiggle=2;labelBackgroundColor=none;" parent="1" vertex="1">
          <mxGeometry x="2420" y="233" width="80" height="50" as="geometry" />
        </mxCell>
        <mxCell id="TKMVQjpAaQ59t7xjAut5-272" value="扇区" style="rounded=0;whiteSpace=wrap;html=1;sketch=1;curveFitting=1;jiggle=2;labelBackgroundColor=none;" parent="1" vertex="1">
          <mxGeometry x="2500" y="233" width="80" height="50" as="geometry" />
        </mxCell>
        <mxCell id="TKMVQjpAaQ59t7xjAut5-273" value="扇区" style="rounded=0;whiteSpace=wrap;html=1;sketch=1;curveFitting=1;jiggle=2;labelBackgroundColor=none;" parent="1" vertex="1">
          <mxGeometry x="2580" y="233" width="80" height="50" as="geometry" />
        </mxCell>
        <mxCell id="TKMVQjpAaQ59t7xjAut5-276" value="扇区" style="rounded=0;whiteSpace=wrap;html=1;sketch=1;curveFitting=1;jiggle=2;labelBackgroundColor=none;" parent="1" vertex="1">
          <mxGeometry x="2660" y="233" width="80" height="50" as="geometry" />
        </mxCell>
        <mxCell id="TKMVQjpAaQ59t7xjAut5-277" value="扇区" style="rounded=0;whiteSpace=wrap;html=1;sketch=1;curveFitting=1;jiggle=2;labelBackgroundColor=none;" parent="1" vertex="1">
          <mxGeometry x="2740" y="233" width="80" height="50" as="geometry" />
        </mxCell>
        <mxCell id="TKMVQjpAaQ59t7xjAut5-278" value="扇区" style="rounded=0;whiteSpace=wrap;html=1;sketch=1;curveFitting=1;jiggle=2;labelBackgroundColor=none;" parent="1" vertex="1">
          <mxGeometry x="2820" y="233" width="80" height="50" as="geometry" />
        </mxCell>
        <mxCell id="TKMVQjpAaQ59t7xjAut5-283" value="扇区" style="rounded=0;whiteSpace=wrap;html=1;sketch=1;curveFitting=1;jiggle=2;labelBackgroundColor=none;" parent="1" vertex="1">
          <mxGeometry x="2900" y="233" width="80" height="50" as="geometry" />
        </mxCell>
        <mxCell id="TKMVQjpAaQ59t7xjAut5-284" value="扇区" style="rounded=0;whiteSpace=wrap;html=1;sketch=1;curveFitting=1;jiggle=2;labelBackgroundColor=none;" parent="1" vertex="1">
          <mxGeometry x="2980" y="233" width="80" height="50" as="geometry" />
        </mxCell>
        <mxCell id="TKMVQjpAaQ59t7xjAut5-285" value="扇区" style="rounded=0;whiteSpace=wrap;html=1;sketch=1;curveFitting=1;jiggle=2;labelBackgroundColor=none;" parent="1" vertex="1">
          <mxGeometry x="3060" y="233" width="80" height="50" as="geometry" />
        </mxCell>
        <mxCell id="sNwrbzi5gkeXXaAXlcDa-3" value="扇区" style="rounded=0;whiteSpace=wrap;html=1;sketch=1;curveFitting=1;jiggle=2;labelBackgroundColor=none;" vertex="1" parent="1">
          <mxGeometry x="330" y="125" width="80" height="50" as="geometry" />
        </mxCell>
        <mxCell id="sNwrbzi5gkeXXaAXlcDa-4" value="扇区" style="rounded=0;whiteSpace=wrap;html=1;sketch=1;curveFitting=1;jiggle=2;labelBackgroundColor=none;" vertex="1" parent="1">
          <mxGeometry x="410" y="125" width="80" height="50" as="geometry" />
        </mxCell>
        <mxCell id="sNwrbzi5gkeXXaAXlcDa-5" value="扇区" style="rounded=0;whiteSpace=wrap;html=1;sketch=1;curveFitting=1;jiggle=2;labelBackgroundColor=none;" vertex="1" parent="1">
          <mxGeometry x="490" y="125" width="80" height="50" as="geometry" />
        </mxCell>
        <mxCell id="sNwrbzi5gkeXXaAXlcDa-6" value="1" style="text;html=1;align=center;verticalAlign=middle;resizable=0;points=[];autosize=1;strokeColor=none;fillColor=none;rounded=0;sketch=1;curveFitting=1;jiggle=2;labelBackgroundColor=none;" vertex="1" parent="1">
          <mxGeometry x="355" y="193" width="30" height="30" as="geometry" />
        </mxCell>
        <mxCell id="sNwrbzi5gkeXXaAXlcDa-7" value="2" style="text;html=1;align=center;verticalAlign=middle;resizable=0;points=[];autosize=1;strokeColor=none;fillColor=none;rounded=0;sketch=1;curveFitting=1;jiggle=2;labelBackgroundColor=none;" vertex="1" parent="1">
          <mxGeometry x="435" y="193" width="30" height="30" as="geometry" />
        </mxCell>
        <mxCell id="sNwrbzi5gkeXXaAXlcDa-8" value="3" style="text;html=1;align=center;verticalAlign=middle;resizable=0;points=[];autosize=1;strokeColor=none;fillColor=none;rounded=0;sketch=1;curveFitting=1;jiggle=2;labelBackgroundColor=none;" vertex="1" parent="1">
          <mxGeometry x="515" y="193" width="30" height="30" as="geometry" />
        </mxCell>
        <mxCell id="sNwrbzi5gkeXXaAXlcDa-9" value="4" style="text;html=1;align=center;verticalAlign=middle;resizable=0;points=[];autosize=1;strokeColor=none;fillColor=none;rounded=0;sketch=1;curveFitting=1;jiggle=2;labelBackgroundColor=none;" vertex="1" parent="1">
          <mxGeometry x="595" y="193" width="30" height="30" as="geometry" />
        </mxCell>
        <mxCell id="sNwrbzi5gkeXXaAXlcDa-10" value="扇区" style="rounded=0;whiteSpace=wrap;html=1;sketch=1;curveFitting=1;jiggle=2;labelBackgroundColor=none;" vertex="1" parent="1">
          <mxGeometry x="570" y="125" width="80" height="50" as="geometry" />
        </mxCell>
        <mxCell id="sNwrbzi5gkeXXaAXlcDa-11" value="扇区" style="rounded=0;whiteSpace=wrap;html=1;sketch=1;curveFitting=1;jiggle=2;labelBackgroundColor=none;" vertex="1" parent="1">
          <mxGeometry x="650" y="125" width="80" height="50" as="geometry" />
        </mxCell>
        <mxCell id="sNwrbzi5gkeXXaAXlcDa-12" value="扇区" style="rounded=0;whiteSpace=wrap;html=1;sketch=1;curveFitting=1;jiggle=2;labelBackgroundColor=none;" vertex="1" parent="1">
          <mxGeometry x="730" y="125" width="80" height="50" as="geometry" />
        </mxCell>
        <mxCell id="sNwrbzi5gkeXXaAXlcDa-13" value="5" style="text;html=1;align=center;verticalAlign=middle;resizable=0;points=[];autosize=1;strokeColor=none;fillColor=none;rounded=0;sketch=1;curveFitting=1;jiggle=2;labelBackgroundColor=none;" vertex="1" parent="1">
          <mxGeometry x="675" y="193" width="30" height="30" as="geometry" />
        </mxCell>
        <mxCell id="sNwrbzi5gkeXXaAXlcDa-14" value="6" style="text;html=1;align=center;verticalAlign=middle;resizable=0;points=[];autosize=1;strokeColor=none;fillColor=none;rounded=0;sketch=1;curveFitting=1;jiggle=2;labelBackgroundColor=none;" vertex="1" parent="1">
          <mxGeometry x="755" y="193" width="30" height="30" as="geometry" />
        </mxCell>
        <mxCell id="sNwrbzi5gkeXXaAXlcDa-15" value="" style="endArrow=none;dashed=1;html=1;dashPattern=1 3;strokeWidth=2;rounded=0;sketch=1;curveFitting=1;jiggle=2;labelBackgroundColor=none;fontColor=default;" edge="1" parent="1">
          <mxGeometry width="50" height="50" relative="1" as="geometry">
            <mxPoint x="830" y="155" as="sourcePoint" />
            <mxPoint x="860" y="155" as="targetPoint" />
          </mxGeometry>
        </mxCell>
        <mxCell id="sNwrbzi5gkeXXaAXlcDa-16" value="&#xa;&lt;span style=&quot;color: rgb(0, 0, 0); font-family: Helvetica; font-size: 12px; font-style: normal; font-variant-ligatures: normal; font-variant-caps: normal; font-weight: 400; letter-spacing: normal; orphans: 2; text-align: center; text-indent: 0px; text-transform: none; widows: 2; word-spacing: 0px; -webkit-text-stroke-width: 0px; white-space: normal; background-color: rgb(251, 251, 251); text-decoration-thickness: initial; text-decoration-style: initial; text-decoration-color: initial; display: inline !important; float: none;&quot;&gt;扇区&lt;/span&gt;&#xa;&#xa;" style="rounded=0;whiteSpace=wrap;html=1;sketch=1;curveFitting=1;jiggle=2;labelBackgroundColor=none;" vertex="1" parent="1">
          <mxGeometry x="330" y="223" width="80" height="50" as="geometry" />
        </mxCell>
        <mxCell id="sNwrbzi5gkeXXaAXlcDa-17" value="扇区" style="rounded=0;whiteSpace=wrap;html=1;sketch=1;curveFitting=1;jiggle=2;labelBackgroundColor=none;" vertex="1" parent="1">
          <mxGeometry x="410" y="223" width="80" height="50" as="geometry" />
        </mxCell>
        <mxCell id="sNwrbzi5gkeXXaAXlcDa-18" value="扇区" style="rounded=0;whiteSpace=wrap;html=1;sketch=1;curveFitting=1;jiggle=2;labelBackgroundColor=none;" vertex="1" parent="1">
          <mxGeometry x="490" y="223" width="80" height="50" as="geometry" />
        </mxCell>
        <mxCell id="sNwrbzi5gkeXXaAXlcDa-19" value="1" style="text;html=1;align=center;verticalAlign=middle;resizable=0;points=[];autosize=1;strokeColor=none;fillColor=none;rounded=0;sketch=1;curveFitting=1;jiggle=2;labelBackgroundColor=none;" vertex="1" parent="1">
          <mxGeometry x="355" y="291" width="30" height="30" as="geometry" />
        </mxCell>
        <mxCell id="sNwrbzi5gkeXXaAXlcDa-20" value="2" style="text;html=1;align=center;verticalAlign=middle;resizable=0;points=[];autosize=1;strokeColor=none;fillColor=none;rounded=0;sketch=1;curveFitting=1;jiggle=2;labelBackgroundColor=none;" vertex="1" parent="1">
          <mxGeometry x="435" y="291" width="30" height="30" as="geometry" />
        </mxCell>
        <mxCell id="sNwrbzi5gkeXXaAXlcDa-21" value="3" style="text;html=1;align=center;verticalAlign=middle;resizable=0;points=[];autosize=1;strokeColor=none;fillColor=none;rounded=0;sketch=1;curveFitting=1;jiggle=2;labelBackgroundColor=none;" vertex="1" parent="1">
          <mxGeometry x="515" y="291" width="30" height="30" as="geometry" />
        </mxCell>
        <mxCell id="sNwrbzi5gkeXXaAXlcDa-22" value="4" style="text;html=1;align=center;verticalAlign=middle;resizable=0;points=[];autosize=1;strokeColor=none;fillColor=none;rounded=0;sketch=1;curveFitting=1;jiggle=2;labelBackgroundColor=none;" vertex="1" parent="1">
          <mxGeometry x="595" y="291" width="30" height="30" as="geometry" />
        </mxCell>
        <mxCell id="sNwrbzi5gkeXXaAXlcDa-23" value="扇区" style="rounded=0;whiteSpace=wrap;html=1;sketch=1;curveFitting=1;jiggle=2;labelBackgroundColor=none;" vertex="1" parent="1">
          <mxGeometry x="570" y="223" width="80" height="50" as="geometry" />
        </mxCell>
        <mxCell id="sNwrbzi5gkeXXaAXlcDa-24" value="扇区" style="rounded=0;whiteSpace=wrap;html=1;sketch=1;curveFitting=1;jiggle=2;labelBackgroundColor=none;" vertex="1" parent="1">
          <mxGeometry x="650" y="223" width="80" height="50" as="geometry" />
        </mxCell>
        <mxCell id="sNwrbzi5gkeXXaAXlcDa-25" value="扇区" style="rounded=0;whiteSpace=wrap;html=1;sketch=1;curveFitting=1;jiggle=2;labelBackgroundColor=none;" vertex="1" parent="1">
          <mxGeometry x="730" y="223" width="80" height="50" as="geometry" />
        </mxCell>
        <mxCell id="sNwrbzi5gkeXXaAXlcDa-26" value="5" style="text;html=1;align=center;verticalAlign=middle;resizable=0;points=[];autosize=1;strokeColor=none;fillColor=none;rounded=0;sketch=1;curveFitting=1;jiggle=2;labelBackgroundColor=none;" vertex="1" parent="1">
          <mxGeometry x="675" y="291" width="30" height="30" as="geometry" />
        </mxCell>
        <mxCell id="sNwrbzi5gkeXXaAXlcDa-27" value="6" style="text;html=1;align=center;verticalAlign=middle;resizable=0;points=[];autosize=1;strokeColor=none;fillColor=none;rounded=0;sketch=1;curveFitting=1;jiggle=2;labelBackgroundColor=none;" vertex="1" parent="1">
          <mxGeometry x="755" y="291" width="30" height="30" as="geometry" />
        </mxCell>
        <mxCell id="sNwrbzi5gkeXXaAXlcDa-28" value="" style="endArrow=none;dashed=1;html=1;dashPattern=1 3;strokeWidth=2;rounded=0;sketch=1;curveFitting=1;jiggle=2;labelBackgroundColor=none;fontColor=default;" edge="1" parent="1">
          <mxGeometry width="50" height="50" relative="1" as="geometry">
            <mxPoint x="830" y="253" as="sourcePoint" />
            <mxPoint x="860" y="253" as="targetPoint" />
          </mxGeometry>
        </mxCell>
        <mxCell id="sNwrbzi5gkeXXaAXlcDa-29" value="扇区" style="rounded=0;whiteSpace=wrap;html=1;sketch=1;curveFitting=1;jiggle=2;labelBackgroundColor=none;" vertex="1" parent="1">
          <mxGeometry x="330" y="321" width="80" height="50" as="geometry" />
        </mxCell>
        <mxCell id="sNwrbzi5gkeXXaAXlcDa-30" value="扇区" style="rounded=0;whiteSpace=wrap;html=1;sketch=1;curveFitting=1;jiggle=2;labelBackgroundColor=none;" vertex="1" parent="1">
          <mxGeometry x="410" y="321" width="80" height="50" as="geometry" />
        </mxCell>
        <mxCell id="sNwrbzi5gkeXXaAXlcDa-31" value="扇区" style="rounded=0;whiteSpace=wrap;html=1;sketch=1;curveFitting=1;jiggle=2;labelBackgroundColor=none;" vertex="1" parent="1">
          <mxGeometry x="490" y="321" width="80" height="50" as="geometry" />
        </mxCell>
        <mxCell id="sNwrbzi5gkeXXaAXlcDa-32" value="1" style="text;html=1;align=center;verticalAlign=middle;resizable=0;points=[];autosize=1;strokeColor=none;fillColor=none;rounded=0;sketch=1;curveFitting=1;jiggle=2;labelBackgroundColor=none;" vertex="1" parent="1">
          <mxGeometry x="355" y="389" width="30" height="30" as="geometry" />
        </mxCell>
        <mxCell id="sNwrbzi5gkeXXaAXlcDa-33" value="2" style="text;html=1;align=center;verticalAlign=middle;resizable=0;points=[];autosize=1;strokeColor=none;fillColor=none;rounded=0;sketch=1;curveFitting=1;jiggle=2;labelBackgroundColor=none;" vertex="1" parent="1">
          <mxGeometry x="435" y="389" width="30" height="30" as="geometry" />
        </mxCell>
        <mxCell id="sNwrbzi5gkeXXaAXlcDa-34" value="3" style="text;html=1;align=center;verticalAlign=middle;resizable=0;points=[];autosize=1;strokeColor=none;fillColor=none;rounded=0;sketch=1;curveFitting=1;jiggle=2;labelBackgroundColor=none;" vertex="1" parent="1">
          <mxGeometry x="515" y="389" width="30" height="30" as="geometry" />
        </mxCell>
        <mxCell id="sNwrbzi5gkeXXaAXlcDa-35" value="4" style="text;html=1;align=center;verticalAlign=middle;resizable=0;points=[];autosize=1;strokeColor=none;fillColor=none;rounded=0;sketch=1;curveFitting=1;jiggle=2;labelBackgroundColor=none;" vertex="1" parent="1">
          <mxGeometry x="595" y="389" width="30" height="30" as="geometry" />
        </mxCell>
        <mxCell id="sNwrbzi5gkeXXaAXlcDa-36" value="扇区" style="rounded=0;whiteSpace=wrap;html=1;sketch=1;curveFitting=1;jiggle=2;labelBackgroundColor=none;" vertex="1" parent="1">
          <mxGeometry x="570" y="321" width="80" height="50" as="geometry" />
        </mxCell>
        <mxCell id="sNwrbzi5gkeXXaAXlcDa-37" value="扇区" style="rounded=0;whiteSpace=wrap;html=1;sketch=1;curveFitting=1;jiggle=2;labelBackgroundColor=none;" vertex="1" parent="1">
          <mxGeometry x="650" y="321" width="80" height="50" as="geometry" />
        </mxCell>
        <mxCell id="sNwrbzi5gkeXXaAXlcDa-38" value="扇区" style="rounded=0;whiteSpace=wrap;html=1;sketch=1;curveFitting=1;jiggle=2;labelBackgroundColor=none;" vertex="1" parent="1">
          <mxGeometry x="730" y="321" width="80" height="50" as="geometry" />
        </mxCell>
        <mxCell id="sNwrbzi5gkeXXaAXlcDa-39" value="5" style="text;html=1;align=center;verticalAlign=middle;resizable=0;points=[];autosize=1;strokeColor=none;fillColor=none;rounded=0;sketch=1;curveFitting=1;jiggle=2;labelBackgroundColor=none;" vertex="1" parent="1">
          <mxGeometry x="675" y="389" width="30" height="30" as="geometry" />
        </mxCell>
        <mxCell id="sNwrbzi5gkeXXaAXlcDa-40" value="6" style="text;html=1;align=center;verticalAlign=middle;resizable=0;points=[];autosize=1;strokeColor=none;fillColor=none;rounded=0;sketch=1;curveFitting=1;jiggle=2;labelBackgroundColor=none;" vertex="1" parent="1">
          <mxGeometry x="755" y="389" width="30" height="30" as="geometry" />
        </mxCell>
        <mxCell id="sNwrbzi5gkeXXaAXlcDa-41" value="" style="endArrow=none;dashed=1;html=1;dashPattern=1 3;strokeWidth=2;rounded=0;sketch=1;curveFitting=1;jiggle=2;labelBackgroundColor=none;fontColor=default;" edge="1" parent="1">
          <mxGeometry width="50" height="50" relative="1" as="geometry">
            <mxPoint x="830" y="351" as="sourcePoint" />
            <mxPoint x="860" y="351" as="targetPoint" />
          </mxGeometry>
        </mxCell>
        <mxCell id="sNwrbzi5gkeXXaAXlcDa-42" value="1" style="text;html=1;align=center;verticalAlign=middle;resizable=0;points=[];autosize=1;strokeColor=none;fillColor=none;rounded=0;sketch=1;curveFitting=1;jiggle=2;labelBackgroundColor=none;" vertex="1" parent="1">
          <mxGeometry x="265" y="133" width="30" height="30" as="geometry" />
        </mxCell>
        <mxCell id="sNwrbzi5gkeXXaAXlcDa-43" value="2" style="text;html=1;align=center;verticalAlign=middle;resizable=0;points=[];autosize=1;strokeColor=none;fillColor=none;rounded=0;sketch=1;curveFitting=1;jiggle=2;labelBackgroundColor=none;" vertex="1" parent="1">
          <mxGeometry x="265" y="233" width="30" height="30" as="geometry" />
        </mxCell>
        <mxCell id="sNwrbzi5gkeXXaAXlcDa-44" value="3" style="text;html=1;align=center;verticalAlign=middle;resizable=0;points=[];autosize=1;strokeColor=none;fillColor=none;rounded=0;sketch=1;curveFitting=1;jiggle=2;labelBackgroundColor=none;" vertex="1" parent="1">
          <mxGeometry x="265" y="333" width="30" height="30" as="geometry" />
        </mxCell>
        <mxCell id="sNwrbzi5gkeXXaAXlcDa-45" value="扇区" style="rounded=0;whiteSpace=wrap;html=1;sketch=1;curveFitting=1;jiggle=2;labelBackgroundColor=none;" vertex="1" parent="1">
          <mxGeometry x="330" y="419" width="80" height="50" as="geometry" />
        </mxCell>
        <mxCell id="sNwrbzi5gkeXXaAXlcDa-46" value="扇区" style="rounded=0;whiteSpace=wrap;html=1;sketch=1;curveFitting=1;jiggle=2;labelBackgroundColor=none;" vertex="1" parent="1">
          <mxGeometry x="410" y="419" width="80" height="50" as="geometry" />
        </mxCell>
        <mxCell id="sNwrbzi5gkeXXaAXlcDa-47" value="扇区" style="rounded=0;whiteSpace=wrap;html=1;sketch=1;curveFitting=1;jiggle=2;labelBackgroundColor=none;" vertex="1" parent="1">
          <mxGeometry x="490" y="419" width="80" height="50" as="geometry" />
        </mxCell>
        <mxCell id="sNwrbzi5gkeXXaAXlcDa-48" value="1" style="text;html=1;align=center;verticalAlign=middle;resizable=0;points=[];autosize=1;strokeColor=none;fillColor=none;rounded=0;sketch=1;curveFitting=1;jiggle=2;labelBackgroundColor=none;" vertex="1" parent="1">
          <mxGeometry x="355" y="487" width="30" height="30" as="geometry" />
        </mxCell>
        <mxCell id="sNwrbzi5gkeXXaAXlcDa-49" value="2" style="text;html=1;align=center;verticalAlign=middle;resizable=0;points=[];autosize=1;strokeColor=none;fillColor=none;rounded=0;sketch=1;curveFitting=1;jiggle=2;labelBackgroundColor=none;" vertex="1" parent="1">
          <mxGeometry x="435" y="487" width="30" height="30" as="geometry" />
        </mxCell>
        <mxCell id="sNwrbzi5gkeXXaAXlcDa-50" value="3" style="text;html=1;align=center;verticalAlign=middle;resizable=0;points=[];autosize=1;strokeColor=none;fillColor=none;rounded=0;sketch=1;curveFitting=1;jiggle=2;labelBackgroundColor=none;" vertex="1" parent="1">
          <mxGeometry x="515" y="487" width="30" height="30" as="geometry" />
        </mxCell>
        <mxCell id="sNwrbzi5gkeXXaAXlcDa-51" value="4" style="text;html=1;align=center;verticalAlign=middle;resizable=0;points=[];autosize=1;strokeColor=none;fillColor=none;rounded=0;sketch=1;curveFitting=1;jiggle=2;labelBackgroundColor=none;" vertex="1" parent="1">
          <mxGeometry x="595" y="487" width="30" height="30" as="geometry" />
        </mxCell>
        <mxCell id="sNwrbzi5gkeXXaAXlcDa-52" value="扇区" style="rounded=0;whiteSpace=wrap;html=1;sketch=1;curveFitting=1;jiggle=2;labelBackgroundColor=none;" vertex="1" parent="1">
          <mxGeometry x="570" y="419" width="80" height="50" as="geometry" />
        </mxCell>
        <mxCell id="sNwrbzi5gkeXXaAXlcDa-53" value="扇区" style="rounded=0;whiteSpace=wrap;html=1;sketch=1;curveFitting=1;jiggle=2;labelBackgroundColor=none;" vertex="1" parent="1">
          <mxGeometry x="650" y="419" width="80" height="50" as="geometry" />
        </mxCell>
        <mxCell id="sNwrbzi5gkeXXaAXlcDa-54" value="扇区" style="rounded=0;whiteSpace=wrap;html=1;sketch=1;curveFitting=1;jiggle=2;labelBackgroundColor=none;" vertex="1" parent="1">
          <mxGeometry x="730" y="419" width="80" height="50" as="geometry" />
        </mxCell>
        <mxCell id="sNwrbzi5gkeXXaAXlcDa-55" value="5" style="text;html=1;align=center;verticalAlign=middle;resizable=0;points=[];autosize=1;strokeColor=none;fillColor=none;rounded=0;sketch=1;curveFitting=1;jiggle=2;labelBackgroundColor=none;" vertex="1" parent="1">
          <mxGeometry x="675" y="487" width="30" height="30" as="geometry" />
        </mxCell>
        <mxCell id="sNwrbzi5gkeXXaAXlcDa-56" value="6" style="text;html=1;align=center;verticalAlign=middle;resizable=0;points=[];autosize=1;strokeColor=none;fillColor=none;rounded=0;sketch=1;curveFitting=1;jiggle=2;labelBackgroundColor=none;" vertex="1" parent="1">
          <mxGeometry x="755" y="487" width="30" height="30" as="geometry" />
        </mxCell>
        <mxCell id="sNwrbzi5gkeXXaAXlcDa-57" value="" style="endArrow=none;dashed=1;html=1;dashPattern=1 3;strokeWidth=2;rounded=0;sketch=1;curveFitting=1;jiggle=2;labelBackgroundColor=none;fontColor=default;" edge="1" parent="1">
          <mxGeometry width="50" height="50" relative="1" as="geometry">
            <mxPoint x="830" y="449" as="sourcePoint" />
            <mxPoint x="860" y="449" as="targetPoint" />
          </mxGeometry>
        </mxCell>
        <mxCell id="sNwrbzi5gkeXXaAXlcDa-58" value="4" style="text;html=1;align=center;verticalAlign=middle;resizable=0;points=[];autosize=1;strokeColor=none;fillColor=none;rounded=0;sketch=1;curveFitting=1;jiggle=2;labelBackgroundColor=none;" vertex="1" parent="1">
          <mxGeometry x="265" y="431" width="30" height="30" as="geometry" />
        </mxCell>
        <mxCell id="sNwrbzi5gkeXXaAXlcDa-59" value="" style="endArrow=none;dashed=1;html=1;dashPattern=1 3;strokeWidth=2;rounded=0;sketch=1;curveFitting=1;jiggle=2;labelBackgroundColor=none;fontColor=default;" edge="1" parent="1">
          <mxGeometry width="50" height="50" relative="1" as="geometry">
            <mxPoint x="280" y="483" as="sourcePoint" />
            <mxPoint x="280" y="513" as="targetPoint" />
          </mxGeometry>
        </mxCell>
        <mxCell id="sNwrbzi5gkeXXaAXlcDa-60" value="0号盘面磁道展开" style="text;html=1;align=center;verticalAlign=middle;resizable=0;points=[];autosize=1;strokeColor=none;fillColor=none;rounded=0;sketch=1;curveFitting=1;jiggle=2;labelBackgroundColor=none;" vertex="1" parent="1">
          <mxGeometry x="80" y="185" width="110" height="30" as="geometry" />
        </mxCell>
        <mxCell id="sNwrbzi5gkeXXaAXlcDa-61" value="1号盘面磁道展开" style="text;html=1;align=center;verticalAlign=middle;resizable=0;points=[];autosize=1;strokeColor=none;fillColor=none;rounded=0;sketch=1;curveFitting=1;jiggle=2;labelBackgroundColor=none;" vertex="1" parent="1">
          <mxGeometry x="80" y="375" width="110" height="30" as="geometry" />
        </mxCell>
        <mxCell id="sNwrbzi5gkeXXaAXlcDa-62" value="" style="endArrow=classic;html=1;rounded=0;exitX=1.021;exitY=0.05;exitDx=0;exitDy=0;exitPerimeter=0;entryX=-0.137;entryY=0.598;entryDx=0;entryDy=0;entryPerimeter=0;sketch=1;curveFitting=1;jiggle=2;labelBackgroundColor=none;fontColor=default;" edge="1" parent="1" source="sNwrbzi5gkeXXaAXlcDa-61" target="sNwrbzi5gkeXXaAXlcDa-44">
          <mxGeometry width="50" height="50" relative="1" as="geometry">
            <mxPoint x="690" y="355" as="sourcePoint" />
            <mxPoint x="740" y="305" as="targetPoint" />
          </mxGeometry>
        </mxCell>
        <mxCell id="sNwrbzi5gkeXXaAXlcDa-63" value="" style="endArrow=classic;html=1;rounded=0;exitX=0.997;exitY=0.006;exitDx=0;exitDy=0;exitPerimeter=0;entryX=-0.137;entryY=0.598;entryDx=0;entryDy=0;entryPerimeter=0;sketch=1;curveFitting=1;jiggle=2;labelBackgroundColor=none;fontColor=default;" edge="1" parent="1" source="sNwrbzi5gkeXXaAXlcDa-60">
          <mxGeometry width="50" height="50" relative="1" as="geometry">
            <mxPoint x="215" y="189" as="sourcePoint" />
            <mxPoint x="265" y="155" as="targetPoint" />
          </mxGeometry>
        </mxCell>
        <mxCell id="sNwrbzi5gkeXXaAXlcDa-64" value="" style="endArrow=classic;html=1;rounded=0;exitX=1.029;exitY=0.92;exitDx=0;exitDy=0;exitPerimeter=0;entryX=-0.044;entryY=0.146;entryDx=0;entryDy=0;entryPerimeter=0;sketch=1;curveFitting=1;jiggle=2;labelBackgroundColor=none;fontColor=default;" edge="1" parent="1" source="sNwrbzi5gkeXXaAXlcDa-61" target="sNwrbzi5gkeXXaAXlcDa-58">
          <mxGeometry width="50" height="50" relative="1" as="geometry">
            <mxPoint x="221" y="395" as="sourcePoint" />
            <mxPoint x="271" y="361" as="targetPoint" />
          </mxGeometry>
        </mxCell>
        <mxCell id="sNwrbzi5gkeXXaAXlcDa-65" value="" style="endArrow=classic;html=1;rounded=0;exitX=1.021;exitY=0.876;exitDx=0;exitDy=0;exitPerimeter=0;entryX=-0.044;entryY=0.146;entryDx=0;entryDy=0;entryPerimeter=0;sketch=1;curveFitting=1;jiggle=2;labelBackgroundColor=none;fontColor=default;" edge="1" parent="1" source="sNwrbzi5gkeXXaAXlcDa-60">
          <mxGeometry width="50" height="50" relative="1" as="geometry">
            <mxPoint x="214" y="223" as="sourcePoint" />
            <mxPoint x="265" y="244" as="targetPoint" />
          </mxGeometry>
        </mxCell>
        <mxCell id="sNwrbzi5gkeXXaAXlcDa-66" value="" style="endArrow=none;html=1;rounded=0;sketch=1;curveFitting=1;jiggle=2;labelBackgroundColor=none;fontColor=default;" edge="1" parent="1">
          <mxGeometry width="50" height="50" relative="1" as="geometry">
            <mxPoint x="60" y="115" as="sourcePoint" />
            <mxPoint x="900" y="115" as="targetPoint" />
          </mxGeometry>
        </mxCell>
        <mxCell id="sNwrbzi5gkeXXaAXlcDa-67" value="" style="endArrow=none;html=1;rounded=0;sketch=1;curveFitting=1;jiggle=2;labelBackgroundColor=none;fontColor=default;" edge="1" parent="1">
          <mxGeometry width="50" height="50" relative="1" as="geometry">
            <mxPoint x="60" y="516" as="sourcePoint" />
            <mxPoint x="900" y="516.1700000000001" as="targetPoint" />
          </mxGeometry>
        </mxCell>
        <mxCell id="sNwrbzi5gkeXXaAXlcDa-68" value="" style="endArrow=none;html=1;rounded=0;sketch=1;curveFitting=1;jiggle=2;labelBackgroundColor=none;fontColor=default;" edge="1" parent="1">
          <mxGeometry width="50" height="50" relative="1" as="geometry">
            <mxPoint x="900" y="115" as="sourcePoint" />
            <mxPoint x="900" y="515" as="targetPoint" />
          </mxGeometry>
        </mxCell>
        <mxCell id="sNwrbzi5gkeXXaAXlcDa-69" value="" style="endArrow=none;html=1;rounded=0;sketch=1;curveFitting=1;jiggle=2;labelBackgroundColor=none;fontColor=default;" edge="1" parent="1">
          <mxGeometry width="50" height="50" relative="1" as="geometry">
            <mxPoint x="60" y="117" as="sourcePoint" />
            <mxPoint x="60" y="517" as="targetPoint" />
          </mxGeometry>
        </mxCell>
        <mxCell id="sNwrbzi5gkeXXaAXlcDa-71" value="&lt;font style=&quot;font-size: 24px;&quot;&gt;某一个柱面&lt;/font&gt;" style="text;html=1;align=center;verticalAlign=middle;resizable=0;points=[];autosize=1;strokeColor=none;fillColor=none;fontFamily=Architects Daughter;fontSource=https%3A%2F%2Ffonts.googleapis.com%2Fcss%3Ffamily%3DArchitects%2BDaughter;" vertex="1" parent="1">
          <mxGeometry x="400" y="70" width="140" height="40" as="geometry" />
        </mxCell>
        <mxCell id="sNwrbzi5gkeXXaAXlcDa-72" value="&lt;font style=&quot;font-size: 24px;&quot;&gt;MBR&lt;/font&gt;" style="rounded=0;whiteSpace=wrap;html=1;sketch=1;hachureGap=4;jiggle=2;curveFitting=1;fontFamily=Architects Daughter;fontSource=https%3A%2F%2Ffonts.googleapis.com%2Fcss%3Ffamily%3DArchitects%2BDaughter;" vertex="1" parent="1">
          <mxGeometry x="260" y="767" width="130" height="73" as="geometry" />
        </mxCell>
        <mxCell id="sNwrbzi5gkeXXaAXlcDa-76" value="&lt;font style=&quot;font-size: 24px;&quot;&gt;Partition 1&lt;/font&gt;" style="rounded=0;whiteSpace=wrap;html=1;sketch=1;hachureGap=4;jiggle=2;curveFitting=1;fontFamily=Architects Daughter;fontSource=https%3A%2F%2Ffonts.googleapis.com%2Fcss%3Ffamily%3DArchitects%2BDaughter;" vertex="1" parent="1">
          <mxGeometry x="390" y="767" width="200" height="73" as="geometry" />
        </mxCell>
        <mxCell id="sNwrbzi5gkeXXaAXlcDa-77" value="&lt;span style=&quot;font-size: 24px;&quot;&gt;Partition 2&lt;/span&gt;" style="rounded=0;whiteSpace=wrap;html=1;sketch=1;hachureGap=4;jiggle=2;curveFitting=1;fontFamily=Architects Daughter;fontSource=https%3A%2F%2Ffonts.googleapis.com%2Fcss%3Ffamily%3DArchitects%2BDaughter;" vertex="1" parent="1">
          <mxGeometry x="590" y="767" width="200" height="73" as="geometry" />
        </mxCell>
        <mxCell id="sNwrbzi5gkeXXaAXlcDa-78" value="&lt;span style=&quot;font-size: 24px;&quot;&gt;Partition 3&lt;/span&gt;" style="rounded=0;whiteSpace=wrap;html=1;sketch=1;hachureGap=4;jiggle=2;curveFitting=1;fontFamily=Architects Daughter;fontSource=https%3A%2F%2Ffonts.googleapis.com%2Fcss%3Ffamily%3DArchitects%2BDaughter;" vertex="1" parent="1">
          <mxGeometry x="790" y="767" width="200" height="73" as="geometry" />
        </mxCell>
        <mxCell id="sNwrbzi5gkeXXaAXlcDa-79" value="&lt;span style=&quot;font-size: 24px;&quot;&gt;Partition 4&lt;/span&gt;" style="rounded=0;whiteSpace=wrap;html=1;sketch=1;hachureGap=4;jiggle=2;curveFitting=1;fontFamily=Architects Daughter;fontSource=https%3A%2F%2Ffonts.googleapis.com%2Fcss%3Ffamily%3DArchitects%2BDaughter;" vertex="1" parent="1">
          <mxGeometry x="990" y="767" width="200" height="73" as="geometry" />
        </mxCell>
        <mxCell id="sNwrbzi5gkeXXaAXlcDa-80" value="&lt;span style=&quot;font-size: 24px;&quot;&gt;Boot Sector&lt;/span&gt;" style="rounded=0;whiteSpace=wrap;html=1;sketch=1;hachureGap=4;jiggle=2;curveFitting=1;fontFamily=Architects Daughter;fontSource=https%3A%2F%2Ffonts.googleapis.com%2Fcss%3Ffamily%3DArchitects%2BDaughter;" vertex="1" parent="1">
          <mxGeometry x="390" y="910" width="200" height="73" as="geometry" />
        </mxCell>
        <mxCell id="sNwrbzi5gkeXXaAXlcDa-81" value="&lt;font style=&quot;font-size: 24px;&quot;&gt;EXT2 File System&lt;/font&gt;" style="rounded=0;whiteSpace=wrap;html=1;sketch=1;hachureGap=4;jiggle=2;curveFitting=1;fontFamily=Architects Daughter;fontSource=https%3A%2F%2Ffonts.googleapis.com%2Fcss%3Ffamily%3DArchitects%2BDaughter;" vertex="1" parent="1">
          <mxGeometry x="590" y="910" width="440" height="73" as="geometry" />
        </mxCell>
        <mxCell id="sNwrbzi5gkeXXaAXlcDa-82" value="&lt;font style=&quot;font-size: 24px;&quot;&gt;Disk&lt;/font&gt;" style="text;html=1;align=center;verticalAlign=middle;resizable=0;points=[];autosize=1;strokeColor=none;fillColor=none;fontFamily=Architects Daughter;fontSource=https%3A%2F%2Ffonts.googleapis.com%2Fcss%3Ffamily%3DArchitects%2BDaughter;" vertex="1" parent="1">
          <mxGeometry x="50" y="773" width="70" height="40" as="geometry" />
        </mxCell>
        <mxCell id="sNwrbzi5gkeXXaAXlcDa-83" value="&lt;font style=&quot;font-size: 24px;&quot;&gt;partition&amp;nbsp;&lt;/font&gt;" style="text;html=1;align=center;verticalAlign=middle;resizable=0;points=[];autosize=1;strokeColor=none;fillColor=none;fontFamily=Architects Daughter;fontSource=https%3A%2F%2Ffonts.googleapis.com%2Fcss%3Ffamily%3DArchitects%2BDaughter;" vertex="1" parent="1">
          <mxGeometry x="30" y="921.5" width="120" height="40" as="geometry" />
        </mxCell>
        <mxCell id="sNwrbzi5gkeXXaAXlcDa-85" value="&lt;font style=&quot;font-size: 24px;&quot;&gt;File System&lt;/font&gt;" style="text;html=1;align=center;verticalAlign=middle;resizable=0;points=[];autosize=1;strokeColor=none;fillColor=none;fontFamily=Architects Daughter;fontSource=https%3A%2F%2Ffonts.googleapis.com%2Fcss%3Ffamily%3DArchitects%2BDaughter;" vertex="1" parent="1">
          <mxGeometry x="25" y="1060.5" width="150" height="40" as="geometry" />
        </mxCell>
        <mxCell id="sNwrbzi5gkeXXaAXlcDa-86" value="&lt;font style=&quot;font-size: 24px;&quot;&gt;Block Group&lt;/font&gt;" style="text;html=1;align=center;verticalAlign=middle;resizable=0;points=[];autosize=1;strokeColor=none;fillColor=none;fontFamily=Architects Daughter;fontSource=https%3A%2F%2Ffonts.googleapis.com%2Fcss%3Ffamily%3DArchitects%2BDaughter;" vertex="1" parent="1">
          <mxGeometry x="22.5" y="1211" width="170" height="40" as="geometry" />
        </mxCell>
        <mxCell id="sNwrbzi5gkeXXaAXlcDa-87" value="&lt;font style=&quot;font-size: 24px;&quot;&gt;inode Table&lt;/font&gt;" style="text;html=1;align=center;verticalAlign=middle;resizable=0;points=[];autosize=1;strokeColor=none;fillColor=none;fontFamily=Architects Daughter;fontSource=https%3A%2F%2Ffonts.googleapis.com%2Fcss%3Ffamily%3DArchitects%2BDaughter;" vertex="1" parent="1">
          <mxGeometry x="20" y="1410" width="140" height="40" as="geometry" />
        </mxCell>
        <mxCell id="sNwrbzi5gkeXXaAXlcDa-88" value="&lt;font style=&quot;font-size: 24px;&quot;&gt;Block Group 0&lt;/font&gt;" style="rounded=0;whiteSpace=wrap;html=1;sketch=1;hachureGap=4;jiggle=2;curveFitting=1;fontFamily=Architects Daughter;fontSource=https%3A%2F%2Ffonts.googleapis.com%2Fcss%3Ffamily%3DArchitects%2BDaughter;" vertex="1" parent="1">
          <mxGeometry x="317.5" y="1045" width="260" height="73" as="geometry" />
        </mxCell>
        <mxCell id="sNwrbzi5gkeXXaAXlcDa-91" value="&lt;font style=&quot;font-size: 48px;&quot;&gt;...&lt;/font&gt;" style="rounded=0;whiteSpace=wrap;html=1;sketch=1;hachureGap=4;jiggle=2;curveFitting=1;fontFamily=Architects Daughter;fontSource=https%3A%2F%2Ffonts.googleapis.com%2Fcss%3Ffamily%3DArchitects%2BDaughter;" vertex="1" parent="1">
          <mxGeometry x="837.5" y="1044" width="85" height="73" as="geometry" />
        </mxCell>
        <mxCell id="sNwrbzi5gkeXXaAXlcDa-92" value="&lt;span style=&quot;font-size: 24px;&quot;&gt;Block Group 1&lt;/span&gt;" style="rounded=0;whiteSpace=wrap;html=1;sketch=1;hachureGap=4;jiggle=2;curveFitting=1;fontFamily=Architects Daughter;fontSource=https%3A%2F%2Ffonts.googleapis.com%2Fcss%3Ffamily%3DArchitects%2BDaughter;" vertex="1" parent="1">
          <mxGeometry x="577.5" y="1045" width="260" height="73" as="geometry" />
        </mxCell>
        <mxCell id="sNwrbzi5gkeXXaAXlcDa-93" value="&lt;span style=&quot;font-size: 24px;&quot;&gt;Block Group N&lt;/span&gt;" style="rounded=0;whiteSpace=wrap;html=1;sketch=1;hachureGap=4;jiggle=2;curveFitting=1;fontFamily=Architects Daughter;fontSource=https%3A%2F%2Ffonts.googleapis.com%2Fcss%3Ffamily%3DArchitects%2BDaughter;" vertex="1" parent="1">
          <mxGeometry x="922.5" y="1045" width="260" height="73" as="geometry" />
        </mxCell>
        <mxCell id="sNwrbzi5gkeXXaAXlcDa-94" value="&lt;font style=&quot;font-size: 24px;&quot;&gt;Super&lt;/font&gt;&lt;div&gt;&lt;font size=&quot;3&quot;&gt;Block&lt;/font&gt;&lt;/div&gt;" style="rounded=0;whiteSpace=wrap;html=1;sketch=1;hachureGap=4;jiggle=2;curveFitting=1;fontFamily=Architects Daughter;fontSource=https%3A%2F%2Ffonts.googleapis.com%2Fcss%3Ffamily%3DArchitects%2BDaughter;" vertex="1" parent="1">
          <mxGeometry x="355" y="1194.5" width="100" height="73" as="geometry" />
        </mxCell>
        <mxCell id="sNwrbzi5gkeXXaAXlcDa-96" value="&lt;font style=&quot;font-size: 24px;&quot;&gt;GDT&lt;/font&gt;" style="rounded=0;whiteSpace=wrap;html=1;sketch=1;hachureGap=4;jiggle=2;curveFitting=1;fontFamily=Architects Daughter;fontSource=https%3A%2F%2Ffonts.googleapis.com%2Fcss%3Ffamily%3DArchitects%2BDaughter;" vertex="1" parent="1">
          <mxGeometry x="455" y="1194.5" width="85" height="73" as="geometry" />
        </mxCell>
        <mxCell id="sNwrbzi5gkeXXaAXlcDa-97" value="&lt;font style=&quot;font-size: 24px;&quot;&gt;Block&lt;/font&gt;&lt;div&gt;&lt;font size=&quot;3&quot;&gt;Bitmap&lt;/font&gt;&lt;/div&gt;" style="rounded=0;whiteSpace=wrap;html=1;sketch=1;hachureGap=4;jiggle=2;curveFitting=1;fontFamily=Architects Daughter;fontSource=https%3A%2F%2Ffonts.googleapis.com%2Fcss%3Ffamily%3DArchitects%2BDaughter;" vertex="1" parent="1">
          <mxGeometry x="540" y="1194.5" width="115" height="73" as="geometry" />
        </mxCell>
        <mxCell id="sNwrbzi5gkeXXaAXlcDa-98" value="&lt;font style=&quot;font-size: 24px;&quot;&gt;inode&lt;/font&gt;&lt;div&gt;&lt;font size=&quot;3&quot;&gt;Bitmap&lt;/font&gt;&lt;/div&gt;" style="rounded=0;whiteSpace=wrap;html=1;sketch=1;hachureGap=4;jiggle=2;curveFitting=1;fontFamily=Architects Daughter;fontSource=https%3A%2F%2Ffonts.googleapis.com%2Fcss%3Ffamily%3DArchitects%2BDaughter;" vertex="1" parent="1">
          <mxGeometry x="655" y="1194.5" width="120" height="73" as="geometry" />
        </mxCell>
        <mxCell id="sNwrbzi5gkeXXaAXlcDa-99" value="&lt;font style=&quot;font-size: 24px;&quot;&gt;inode&lt;/font&gt;&lt;div&gt;&lt;font size=&quot;3&quot;&gt;Table&lt;/font&gt;&lt;/div&gt;" style="rounded=0;whiteSpace=wrap;html=1;sketch=1;hachureGap=4;jiggle=2;curveFitting=1;fontFamily=Architects Daughter;fontSource=https%3A%2F%2Ffonts.googleapis.com%2Fcss%3Ffamily%3DArchitects%2BDaughter;" vertex="1" parent="1">
          <mxGeometry x="775" y="1194.5" width="120" height="73" as="geometry" />
        </mxCell>
        <mxCell id="sNwrbzi5gkeXXaAXlcDa-100" value="&lt;font style=&quot;font-size: 24px;&quot;&gt;Data Blocks&lt;/font&gt;" style="rounded=0;whiteSpace=wrap;html=1;sketch=1;hachureGap=4;jiggle=2;curveFitting=1;fontFamily=Architects Daughter;fontSource=https%3A%2F%2Ffonts.googleapis.com%2Fcss%3Ffamily%3DArchitects%2BDaughter;" vertex="1" parent="1">
          <mxGeometry x="895" y="1194.5" width="250" height="73" as="geometry" />
        </mxCell>
        <mxCell id="sNwrbzi5gkeXXaAXlcDa-101" value="&lt;span style=&quot;font-size: 24px;&quot;&gt;Inode Number&lt;/span&gt;" style="rounded=0;whiteSpace=wrap;html=1;sketch=1;hachureGap=4;jiggle=2;curveFitting=1;fontFamily=Architects Daughter;fontSource=https%3A%2F%2Ffonts.googleapis.com%2Fcss%3Ffamily%3DArchitects%2BDaughter;" vertex="1" parent="1">
          <mxGeometry x="180" y="1329" width="115" height="73" as="geometry" />
        </mxCell>
        <mxCell id="sNwrbzi5gkeXXaAXlcDa-102" value="&lt;span style=&quot;font-size: 24px;&quot;&gt;FileType&lt;/span&gt;" style="rounded=0;whiteSpace=wrap;html=1;sketch=1;hachureGap=4;jiggle=2;curveFitting=1;fontFamily=Architects Daughter;fontSource=https%3A%2F%2Ffonts.googleapis.com%2Fcss%3Ffamily%3DArchitects%2BDaughter;" vertex="1" parent="1">
          <mxGeometry x="312.5" y="1329" width="115" height="73" as="geometry" />
        </mxCell>
        <mxCell id="sNwrbzi5gkeXXaAXlcDa-103" value="&lt;span style=&quot;font-size: 24px;&quot;&gt;permissiontioni&lt;/span&gt;" style="rounded=0;whiteSpace=wrap;html=1;sketch=1;hachureGap=4;jiggle=2;curveFitting=1;fontFamily=Architects Daughter;fontSource=https%3A%2F%2Ffonts.googleapis.com%2Fcss%3Ffamily%3DArchitects%2BDaughter;" vertex="1" parent="1">
          <mxGeometry x="440" y="1329" width="197.5" height="73" as="geometry" />
        </mxCell>
        <mxCell id="sNwrbzi5gkeXXaAXlcDa-104" value="&lt;span style=&quot;font-size: 24px;&quot;&gt;Link count&lt;/span&gt;" style="rounded=0;whiteSpace=wrap;html=1;sketch=1;hachureGap=4;jiggle=2;curveFitting=1;fontFamily=Architects Daughter;fontSource=https%3A%2F%2Ffonts.googleapis.com%2Fcss%3Ffamily%3DArchitects%2BDaughter;" vertex="1" parent="1">
          <mxGeometry x="650" y="1329" width="115" height="73" as="geometry" />
        </mxCell>
        <mxCell id="sNwrbzi5gkeXXaAXlcDa-105" value="&lt;span style=&quot;font-size: 24px;&quot;&gt;UID&lt;/span&gt;" style="rounded=0;whiteSpace=wrap;html=1;sketch=1;hachureGap=4;jiggle=2;curveFitting=1;fontFamily=Architects Daughter;fontSource=https%3A%2F%2Ffonts.googleapis.com%2Fcss%3Ffamily%3DArchitects%2BDaughter;" vertex="1" parent="1">
          <mxGeometry x="785" y="1329" width="115" height="73" as="geometry" />
        </mxCell>
        <mxCell id="sNwrbzi5gkeXXaAXlcDa-106" value="&lt;span style=&quot;font-size: 24px;&quot;&gt;GID&amp;nbsp;&lt;/span&gt;" style="rounded=0;whiteSpace=wrap;html=1;sketch=1;hachureGap=4;jiggle=2;curveFitting=1;fontFamily=Architects Daughter;fontSource=https%3A%2F%2Ffonts.googleapis.com%2Fcss%3Ffamily%3DArchitects%2BDaughter;" vertex="1" parent="1">
          <mxGeometry x="920" y="1329" width="115" height="73" as="geometry" />
        </mxCell>
        <mxCell id="sNwrbzi5gkeXXaAXlcDa-107" value="&lt;span style=&quot;font-size: 24px;&quot;&gt;Pointer&lt;/span&gt;" style="rounded=0;whiteSpace=wrap;html=1;sketch=1;hachureGap=4;jiggle=2;curveFitting=1;fontFamily=Architects Daughter;fontSource=https%3A%2F%2Ffonts.googleapis.com%2Fcss%3Ffamily%3DArchitects%2BDaughter;" vertex="1" parent="1">
          <mxGeometry x="1252.5" y="1329" width="115" height="73" as="geometry" />
        </mxCell>
        <mxCell id="sNwrbzi5gkeXXaAXlcDa-108" value="&lt;font style=&quot;font-size: 48px;&quot;&gt;...&lt;/font&gt;" style="rounded=0;whiteSpace=wrap;html=1;sketch=1;hachureGap=4;jiggle=2;curveFitting=1;fontFamily=Architects Daughter;fontSource=https%3A%2F%2Ffonts.googleapis.com%2Fcss%3Ffamily%3DArchitects%2BDaughter;" vertex="1" parent="1">
          <mxGeometry x="1050" y="1329" width="50" height="73" as="geometry" />
        </mxCell>
        <mxCell id="sNwrbzi5gkeXXaAXlcDa-109" value="" style="endArrow=none;dashed=1;html=1;dashPattern=1 3;strokeWidth=2;rounded=0;sketch=1;hachureGap=4;jiggle=2;curveFitting=1;fontFamily=Architects Daughter;fontSource=https%3A%2F%2Ffonts.googleapis.com%2Fcss%3Ffamily%3DArchitects%2BDaughter;entryX=0;entryY=1;entryDx=0;entryDy=0;exitX=0;exitY=0;exitDx=0;exitDy=0;" edge="1" parent="1" source="sNwrbzi5gkeXXaAXlcDa-80" target="sNwrbzi5gkeXXaAXlcDa-77">
          <mxGeometry width="50" height="50" relative="1" as="geometry">
            <mxPoint x="720" y="1100" as="sourcePoint" />
            <mxPoint x="770" y="1050" as="targetPoint" />
          </mxGeometry>
        </mxCell>
        <mxCell id="sNwrbzi5gkeXXaAXlcDa-111" value="" style="endArrow=none;dashed=1;html=1;dashPattern=1 3;strokeWidth=2;rounded=0;sketch=1;hachureGap=4;jiggle=2;curveFitting=1;fontFamily=Architects Daughter;fontSource=https%3A%2F%2Ffonts.googleapis.com%2Fcss%3Ffamily%3DArchitects%2BDaughter;entryX=1;entryY=1;entryDx=0;entryDy=0;exitX=0;exitY=0;exitDx=0;exitDy=0;" edge="1" parent="1" source="sNwrbzi5gkeXXaAXlcDa-88" target="sNwrbzi5gkeXXaAXlcDa-80">
          <mxGeometry width="50" height="50" relative="1" as="geometry">
            <mxPoint x="400" y="920" as="sourcePoint" />
            <mxPoint x="600" y="850" as="targetPoint" />
          </mxGeometry>
        </mxCell>
        <mxCell id="sNwrbzi5gkeXXaAXlcDa-112" value="" style="endArrow=none;dashed=1;html=1;dashPattern=1 3;strokeWidth=2;rounded=0;sketch=1;hachureGap=4;jiggle=2;curveFitting=1;fontFamily=Architects Daughter;fontSource=https%3A%2F%2Ffonts.googleapis.com%2Fcss%3Ffamily%3DArchitects%2BDaughter;entryX=1;entryY=1;entryDx=0;entryDy=0;exitX=1;exitY=0;exitDx=0;exitDy=0;" edge="1" parent="1" source="sNwrbzi5gkeXXaAXlcDa-93" target="sNwrbzi5gkeXXaAXlcDa-81">
          <mxGeometry width="50" height="50" relative="1" as="geometry">
            <mxPoint x="990" y="1020" as="sourcePoint" />
            <mxPoint x="610" y="860" as="targetPoint" />
          </mxGeometry>
        </mxCell>
        <mxCell id="sNwrbzi5gkeXXaAXlcDa-113" value="" style="endArrow=none;dashed=1;html=1;dashPattern=1 3;strokeWidth=2;rounded=0;sketch=1;hachureGap=4;jiggle=2;curveFitting=1;fontFamily=Architects Daughter;fontSource=https%3A%2F%2Ffonts.googleapis.com%2Fcss%3Ffamily%3DArchitects%2BDaughter;entryX=0;entryY=0;entryDx=0;entryDy=0;exitX=0;exitY=1;exitDx=0;exitDy=0;" edge="1" parent="1" source="sNwrbzi5gkeXXaAXlcDa-92" target="sNwrbzi5gkeXXaAXlcDa-94">
          <mxGeometry width="50" height="50" relative="1" as="geometry">
            <mxPoint x="420" y="940" as="sourcePoint" />
            <mxPoint x="620" y="870" as="targetPoint" />
          </mxGeometry>
        </mxCell>
        <mxCell id="sNwrbzi5gkeXXaAXlcDa-114" value="" style="endArrow=none;dashed=1;html=1;dashPattern=1 3;strokeWidth=2;rounded=0;sketch=1;hachureGap=4;jiggle=2;curveFitting=1;fontFamily=Architects Daughter;fontSource=https%3A%2F%2Ffonts.googleapis.com%2Fcss%3Ffamily%3DArchitects%2BDaughter;entryX=1;entryY=1;entryDx=0;entryDy=0;exitX=1;exitY=0;exitDx=0;exitDy=0;" edge="1" parent="1" source="sNwrbzi5gkeXXaAXlcDa-100" target="sNwrbzi5gkeXXaAXlcDa-92">
          <mxGeometry width="50" height="50" relative="1" as="geometry">
            <mxPoint x="430" y="950" as="sourcePoint" />
            <mxPoint x="630" y="880" as="targetPoint" />
          </mxGeometry>
        </mxCell>
        <mxCell id="sNwrbzi5gkeXXaAXlcDa-115" value="" style="endArrow=none;dashed=1;html=1;dashPattern=1 3;strokeWidth=2;rounded=0;sketch=1;hachureGap=4;jiggle=2;curveFitting=1;fontFamily=Architects Daughter;fontSource=https%3A%2F%2Ffonts.googleapis.com%2Fcss%3Ffamily%3DArchitects%2BDaughter;entryX=0;entryY=0;entryDx=0;entryDy=0;exitX=0;exitY=1;exitDx=0;exitDy=0;" edge="1" parent="1" source="sNwrbzi5gkeXXaAXlcDa-99" target="sNwrbzi5gkeXXaAXlcDa-101">
          <mxGeometry width="50" height="50" relative="1" as="geometry">
            <mxPoint x="380" y="960" as="sourcePoint" />
            <mxPoint x="580" y="890" as="targetPoint" />
          </mxGeometry>
        </mxCell>
        <mxCell id="sNwrbzi5gkeXXaAXlcDa-116" value="" style="endArrow=none;dashed=1;html=1;dashPattern=1 3;strokeWidth=2;rounded=0;sketch=1;hachureGap=4;jiggle=2;curveFitting=1;fontFamily=Architects Daughter;fontSource=https%3A%2F%2Ffonts.googleapis.com%2Fcss%3Ffamily%3DArchitects%2BDaughter;entryX=1;entryY=0;entryDx=0;entryDy=0;exitX=0;exitY=1;exitDx=0;exitDy=0;" edge="1" parent="1" source="sNwrbzi5gkeXXaAXlcDa-100" target="sNwrbzi5gkeXXaAXlcDa-107">
          <mxGeometry width="50" height="50" relative="1" as="geometry">
            <mxPoint x="725" y="1278" as="sourcePoint" />
            <mxPoint x="190" y="1339" as="targetPoint" />
          </mxGeometry>
        </mxCell>
        <mxCell id="sNwrbzi5gkeXXaAXlcDa-117" value="" style="endArrow=none;dashed=1;html=1;dashPattern=1 3;strokeWidth=2;rounded=0;sketch=1;hachureGap=4;jiggle=2;curveFitting=1;fontFamily=Architects Daughter;fontSource=https%3A%2F%2Ffonts.googleapis.com%2Fcss%3Ffamily%3DArchitects%2BDaughter;entryX=0;entryY=1;entryDx=0;entryDy=0;exitX=1;exitY=0;exitDx=0;exitDy=0;" edge="1" parent="1" source="sNwrbzi5gkeXXaAXlcDa-81" target="sNwrbzi5gkeXXaAXlcDa-78">
          <mxGeometry width="50" height="50" relative="1" as="geometry">
            <mxPoint x="1193" y="1055" as="sourcePoint" />
            <mxPoint x="1040" y="993" as="targetPoint" />
          </mxGeometry>
        </mxCell>
        <mxCell id="sNwrbzi5gkeXXaAXlcDa-118" value="&lt;span style=&quot;font-size: 24px;&quot;&gt;1&lt;/span&gt;" style="rounded=0;whiteSpace=wrap;html=1;sketch=1;hachureGap=4;jiggle=2;curveFitting=1;fontFamily=Architects Daughter;fontSource=https%3A%2F%2Ffonts.googleapis.com%2Fcss%3Ffamily%3DArchitects%2BDaughter;" vertex="1" parent="1">
          <mxGeometry x="180" y="1435" width="115" height="73" as="geometry" />
        </mxCell>
        <mxCell id="sNwrbzi5gkeXXaAXlcDa-119" value="&lt;span style=&quot;font-size: 24px;&quot;&gt;2&lt;/span&gt;" style="rounded=0;whiteSpace=wrap;html=1;sketch=1;hachureGap=4;jiggle=2;curveFitting=1;fontFamily=Architects Daughter;fontSource=https%3A%2F%2Ffonts.googleapis.com%2Fcss%3Ffamily%3DArchitects%2BDaughter;" vertex="1" parent="1">
          <mxGeometry x="180" y="1520" width="115" height="73" as="geometry" />
        </mxCell>
        <mxCell id="sNwrbzi5gkeXXaAXlcDa-120" value="&lt;font style=&quot;font-size: 48px;&quot;&gt;...&lt;/font&gt;" style="rounded=0;whiteSpace=wrap;html=1;sketch=1;hachureGap=4;jiggle=2;curveFitting=1;fontFamily=Architects Daughter;fontSource=https%3A%2F%2Ffonts.googleapis.com%2Fcss%3Ffamily%3DArchitects%2BDaughter;" vertex="1" parent="1">
          <mxGeometry x="180" y="1606" width="115" height="73" as="geometry" />
        </mxCell>
        <mxCell id="sNwrbzi5gkeXXaAXlcDa-121" value="&lt;font style=&quot;font-size: 24px;&quot;&gt;n&lt;/font&gt;" style="rounded=0;whiteSpace=wrap;html=1;sketch=1;hachureGap=4;jiggle=2;curveFitting=1;fontFamily=Architects Daughter;fontSource=https%3A%2F%2Ffonts.googleapis.com%2Fcss%3Ffamily%3DArchitects%2BDaughter;" vertex="1" parent="1">
          <mxGeometry x="180" y="1690" width="115" height="73" as="geometry" />
        </mxCell>
        <mxCell id="sNwrbzi5gkeXXaAXlcDa-122" value="&lt;span style=&quot;font-size: 24px;&quot;&gt;-&lt;/span&gt;" style="rounded=0;whiteSpace=wrap;html=1;sketch=1;hachureGap=4;jiggle=2;curveFitting=1;fontFamily=Architects Daughter;fontSource=https%3A%2F%2Ffonts.googleapis.com%2Fcss%3Ffamily%3DArchitects%2BDaughter;" vertex="1" parent="1">
          <mxGeometry x="312.5" y="1435" width="115" height="73" as="geometry" />
        </mxCell>
        <mxCell id="sNwrbzi5gkeXXaAXlcDa-123" value="&lt;span style=&quot;font-size: 24px;&quot;&gt;d&lt;/span&gt;" style="rounded=0;whiteSpace=wrap;html=1;sketch=1;hachureGap=4;jiggle=2;curveFitting=1;fontFamily=Architects Daughter;fontSource=https%3A%2F%2Ffonts.googleapis.com%2Fcss%3Ffamily%3DArchitects%2BDaughter;" vertex="1" parent="1">
          <mxGeometry x="312.5" y="1520" width="115" height="73" as="geometry" />
        </mxCell>
        <mxCell id="sNwrbzi5gkeXXaAXlcDa-124" value="&lt;font style=&quot;font-size: 48px;&quot;&gt;...&lt;/font&gt;" style="rounded=0;whiteSpace=wrap;html=1;sketch=1;hachureGap=4;jiggle=2;curveFitting=1;fontFamily=Architects Daughter;fontSource=https%3A%2F%2Ffonts.googleapis.com%2Fcss%3Ffamily%3DArchitects%2BDaughter;" vertex="1" parent="1">
          <mxGeometry x="312.5" y="1606" width="115" height="73" as="geometry" />
        </mxCell>
        <mxCell id="sNwrbzi5gkeXXaAXlcDa-125" value="&lt;font style=&quot;font-size: 24px;&quot;&gt;-&lt;/font&gt;" style="rounded=0;whiteSpace=wrap;html=1;sketch=1;hachureGap=4;jiggle=2;curveFitting=1;fontFamily=Architects Daughter;fontSource=https%3A%2F%2Ffonts.googleapis.com%2Fcss%3Ffamily%3DArchitects%2BDaughter;" vertex="1" parent="1">
          <mxGeometry x="312.5" y="1690" width="115" height="73" as="geometry" />
        </mxCell>
        <mxCell id="sNwrbzi5gkeXXaAXlcDa-126" value="&lt;span style=&quot;font-size: 24px;&quot;&gt;644&lt;/span&gt;" style="rounded=0;whiteSpace=wrap;html=1;sketch=1;hachureGap=4;jiggle=2;curveFitting=1;fontFamily=Architects Daughter;fontSource=https%3A%2F%2Ffonts.googleapis.com%2Fcss%3Ffamily%3DArchitects%2BDaughter;" vertex="1" parent="1">
          <mxGeometry x="440" y="1435" width="200" height="73" as="geometry" />
        </mxCell>
        <mxCell id="sNwrbzi5gkeXXaAXlcDa-127" value="&lt;span style=&quot;font-size: 24px;&quot;&gt;755&lt;/span&gt;" style="rounded=0;whiteSpace=wrap;html=1;sketch=1;hachureGap=4;jiggle=2;curveFitting=1;fontFamily=Architects Daughter;fontSource=https%3A%2F%2Ffonts.googleapis.com%2Fcss%3Ffamily%3DArchitects%2BDaughter;" vertex="1" parent="1">
          <mxGeometry x="440" y="1520" width="200" height="73" as="geometry" />
        </mxCell>
        <mxCell id="sNwrbzi5gkeXXaAXlcDa-128" value="&lt;font style=&quot;font-size: 48px;&quot;&gt;...&lt;/font&gt;" style="rounded=0;whiteSpace=wrap;html=1;sketch=1;hachureGap=4;jiggle=2;curveFitting=1;fontFamily=Architects Daughter;fontSource=https%3A%2F%2Ffonts.googleapis.com%2Fcss%3Ffamily%3DArchitects%2BDaughter;" vertex="1" parent="1">
          <mxGeometry x="440" y="1606" width="200" height="73" as="geometry" />
        </mxCell>
        <mxCell id="sNwrbzi5gkeXXaAXlcDa-129" value="&lt;font style=&quot;font-size: 24px;&quot;&gt;644&lt;/font&gt;" style="rounded=0;whiteSpace=wrap;html=1;sketch=1;hachureGap=4;jiggle=2;curveFitting=1;fontFamily=Architects Daughter;fontSource=https%3A%2F%2Ffonts.googleapis.com%2Fcss%3Ffamily%3DArchitects%2BDaughter;" vertex="1" parent="1">
          <mxGeometry x="440" y="1690" width="200" height="73" as="geometry" />
        </mxCell>
        <mxCell id="sNwrbzi5gkeXXaAXlcDa-130" value="&lt;span style=&quot;font-size: 24px;&quot;&gt;1&lt;/span&gt;" style="rounded=0;whiteSpace=wrap;html=1;sketch=1;hachureGap=4;jiggle=2;curveFitting=1;fontFamily=Architects Daughter;fontSource=https%3A%2F%2Ffonts.googleapis.com%2Fcss%3Ffamily%3DArchitects%2BDaughter;" vertex="1" parent="1">
          <mxGeometry x="650" y="1435" width="115" height="73" as="geometry" />
        </mxCell>
        <mxCell id="sNwrbzi5gkeXXaAXlcDa-131" value="&lt;span style=&quot;font-size: 24px;&quot;&gt;1&lt;/span&gt;" style="rounded=0;whiteSpace=wrap;html=1;sketch=1;hachureGap=4;jiggle=2;curveFitting=1;fontFamily=Architects Daughter;fontSource=https%3A%2F%2Ffonts.googleapis.com%2Fcss%3Ffamily%3DArchitects%2BDaughter;" vertex="1" parent="1">
          <mxGeometry x="650" y="1520" width="115" height="73" as="geometry" />
        </mxCell>
        <mxCell id="sNwrbzi5gkeXXaAXlcDa-132" value="&lt;font style=&quot;font-size: 48px;&quot;&gt;...&lt;/font&gt;" style="rounded=0;whiteSpace=wrap;html=1;sketch=1;hachureGap=4;jiggle=2;curveFitting=1;fontFamily=Architects Daughter;fontSource=https%3A%2F%2Ffonts.googleapis.com%2Fcss%3Ffamily%3DArchitects%2BDaughter;" vertex="1" parent="1">
          <mxGeometry x="650" y="1606" width="115" height="73" as="geometry" />
        </mxCell>
        <mxCell id="sNwrbzi5gkeXXaAXlcDa-133" value="&lt;font style=&quot;font-size: 24px;&quot;&gt;2&lt;/font&gt;" style="rounded=0;whiteSpace=wrap;html=1;sketch=1;hachureGap=4;jiggle=2;curveFitting=1;fontFamily=Architects Daughter;fontSource=https%3A%2F%2Ffonts.googleapis.com%2Fcss%3Ffamily%3DArchitects%2BDaughter;" vertex="1" parent="1">
          <mxGeometry x="650" y="1690" width="115" height="73" as="geometry" />
        </mxCell>
        <mxCell id="sNwrbzi5gkeXXaAXlcDa-134" value="&lt;span style=&quot;font-size: 24px;&quot;&gt;500&lt;/span&gt;" style="rounded=0;whiteSpace=wrap;html=1;sketch=1;hachureGap=4;jiggle=2;curveFitting=1;fontFamily=Architects Daughter;fontSource=https%3A%2F%2Ffonts.googleapis.com%2Fcss%3Ffamily%3DArchitects%2BDaughter;" vertex="1" parent="1">
          <mxGeometry x="785" y="1435" width="115" height="73" as="geometry" />
        </mxCell>
        <mxCell id="sNwrbzi5gkeXXaAXlcDa-135" value="&lt;span style=&quot;font-size: 24px;&quot;&gt;0&lt;/span&gt;" style="rounded=0;whiteSpace=wrap;html=1;sketch=1;hachureGap=4;jiggle=2;curveFitting=1;fontFamily=Architects Daughter;fontSource=https%3A%2F%2Ffonts.googleapis.com%2Fcss%3Ffamily%3DArchitects%2BDaughter;" vertex="1" parent="1">
          <mxGeometry x="785" y="1520" width="115" height="73" as="geometry" />
        </mxCell>
        <mxCell id="sNwrbzi5gkeXXaAXlcDa-136" value="&lt;font style=&quot;font-size: 48px;&quot;&gt;...&lt;/font&gt;" style="rounded=0;whiteSpace=wrap;html=1;sketch=1;hachureGap=4;jiggle=2;curveFitting=1;fontFamily=Architects Daughter;fontSource=https%3A%2F%2Ffonts.googleapis.com%2Fcss%3Ffamily%3DArchitects%2BDaughter;" vertex="1" parent="1">
          <mxGeometry x="785" y="1606" width="115" height="73" as="geometry" />
        </mxCell>
        <mxCell id="sNwrbzi5gkeXXaAXlcDa-137" value="&lt;font style=&quot;font-size: 24px;&quot;&gt;501&lt;/font&gt;" style="rounded=0;whiteSpace=wrap;html=1;sketch=1;hachureGap=4;jiggle=2;curveFitting=1;fontFamily=Architects Daughter;fontSource=https%3A%2F%2Ffonts.googleapis.com%2Fcss%3Ffamily%3DArchitects%2BDaughter;" vertex="1" parent="1">
          <mxGeometry x="785" y="1690" width="115" height="73" as="geometry" />
        </mxCell>
        <mxCell id="sNwrbzi5gkeXXaAXlcDa-138" value="&lt;span style=&quot;font-size: 24px;&quot;&gt;500&lt;/span&gt;" style="rounded=0;whiteSpace=wrap;html=1;sketch=1;hachureGap=4;jiggle=2;curveFitting=1;fontFamily=Architects Daughter;fontSource=https%3A%2F%2Ffonts.googleapis.com%2Fcss%3Ffamily%3DArchitects%2BDaughter;" vertex="1" parent="1">
          <mxGeometry x="920" y="1435" width="115" height="73" as="geometry" />
        </mxCell>
        <mxCell id="sNwrbzi5gkeXXaAXlcDa-139" value="&lt;span style=&quot;font-size: 24px;&quot;&gt;0&lt;/span&gt;" style="rounded=0;whiteSpace=wrap;html=1;sketch=1;hachureGap=4;jiggle=2;curveFitting=1;fontFamily=Architects Daughter;fontSource=https%3A%2F%2Ffonts.googleapis.com%2Fcss%3Ffamily%3DArchitects%2BDaughter;" vertex="1" parent="1">
          <mxGeometry x="920" y="1520" width="115" height="73" as="geometry" />
        </mxCell>
        <mxCell id="sNwrbzi5gkeXXaAXlcDa-140" value="&lt;font style=&quot;font-size: 48px;&quot;&gt;...&lt;/font&gt;" style="rounded=0;whiteSpace=wrap;html=1;sketch=1;hachureGap=4;jiggle=2;curveFitting=1;fontFamily=Architects Daughter;fontSource=https%3A%2F%2Ffonts.googleapis.com%2Fcss%3Ffamily%3DArchitects%2BDaughter;" vertex="1" parent="1">
          <mxGeometry x="920" y="1606" width="115" height="73" as="geometry" />
        </mxCell>
        <mxCell id="sNwrbzi5gkeXXaAXlcDa-141" value="&lt;font style=&quot;font-size: 24px;&quot;&gt;501&lt;/font&gt;" style="rounded=0;whiteSpace=wrap;html=1;sketch=1;hachureGap=4;jiggle=2;curveFitting=1;fontFamily=Architects Daughter;fontSource=https%3A%2F%2Ffonts.googleapis.com%2Fcss%3Ffamily%3DArchitects%2BDaughter;" vertex="1" parent="1">
          <mxGeometry x="920" y="1690" width="115" height="73" as="geometry" />
        </mxCell>
        <mxCell id="sNwrbzi5gkeXXaAXlcDa-146" value="" style="rounded=0;whiteSpace=wrap;html=1;sketch=1;hachureGap=4;jiggle=2;curveFitting=1;fontFamily=Architects Daughter;fontSource=https%3A%2F%2Ffonts.googleapis.com%2Fcss%3Ffamily%3DArchitects%2BDaughter;" vertex="1" parent="1">
          <mxGeometry x="1255" y="1435" width="115" height="73" as="geometry" />
        </mxCell>
        <mxCell id="sNwrbzi5gkeXXaAXlcDa-147" value="" style="rounded=0;whiteSpace=wrap;html=1;sketch=1;hachureGap=4;jiggle=2;curveFitting=1;fontFamily=Architects Daughter;fontSource=https%3A%2F%2Ffonts.googleapis.com%2Fcss%3Ffamily%3DArchitects%2BDaughter;" vertex="1" parent="1">
          <mxGeometry x="1255" y="1520" width="115" height="73" as="geometry" />
        </mxCell>
        <mxCell id="sNwrbzi5gkeXXaAXlcDa-148" value="&lt;span style=&quot;font-size: 48px;&quot;&gt;...&lt;/span&gt;" style="rounded=0;whiteSpace=wrap;html=1;sketch=1;hachureGap=4;jiggle=2;curveFitting=1;fontFamily=Architects Daughter;fontSource=https%3A%2F%2Ffonts.googleapis.com%2Fcss%3Ffamily%3DArchitects%2BDaughter;" vertex="1" parent="1">
          <mxGeometry x="1255" y="1606" width="115" height="73" as="geometry" />
        </mxCell>
        <mxCell id="sNwrbzi5gkeXXaAXlcDa-149" value="" style="rounded=0;whiteSpace=wrap;html=1;sketch=1;hachureGap=4;jiggle=2;curveFitting=1;fontFamily=Architects Daughter;fontSource=https%3A%2F%2Ffonts.googleapis.com%2Fcss%3Ffamily%3DArchitects%2BDaughter;" vertex="1" parent="1">
          <mxGeometry x="1255" y="1690" width="115" height="73" as="geometry" />
        </mxCell>
        <mxCell id="sNwrbzi5gkeXXaAXlcDa-150" value="&lt;font style=&quot;font-size: 48px;&quot;&gt;...&lt;/font&gt;" style="rounded=0;whiteSpace=wrap;html=1;sketch=1;hachureGap=4;jiggle=2;curveFitting=1;fontFamily=Architects Daughter;fontSource=https%3A%2F%2Ffonts.googleapis.com%2Fcss%3Ffamily%3DArchitects%2BDaughter;" vertex="1" parent="1">
          <mxGeometry x="1050" y="1435" width="50" height="73" as="geometry" />
        </mxCell>
        <mxCell id="sNwrbzi5gkeXXaAXlcDa-151" value="&lt;font style=&quot;font-size: 48px;&quot;&gt;...&lt;/font&gt;" style="rounded=0;whiteSpace=wrap;html=1;sketch=1;hachureGap=4;jiggle=2;curveFitting=1;fontFamily=Architects Daughter;fontSource=https%3A%2F%2Ffonts.googleapis.com%2Fcss%3Ffamily%3DArchitects%2BDaughter;" vertex="1" parent="1">
          <mxGeometry x="1050" y="1519" width="50" height="73" as="geometry" />
        </mxCell>
        <mxCell id="sNwrbzi5gkeXXaAXlcDa-152" value="&lt;font style=&quot;font-size: 48px;&quot;&gt;...&lt;/font&gt;" style="rounded=0;whiteSpace=wrap;html=1;sketch=1;hachureGap=4;jiggle=2;curveFitting=1;fontFamily=Architects Daughter;fontSource=https%3A%2F%2Ffonts.googleapis.com%2Fcss%3Ffamily%3DArchitects%2BDaughter;" vertex="1" parent="1">
          <mxGeometry x="1050" y="1606" width="50" height="73" as="geometry" />
        </mxCell>
        <mxCell id="sNwrbzi5gkeXXaAXlcDa-153" value="&lt;font style=&quot;font-size: 48px;&quot;&gt;...&lt;/font&gt;" style="rounded=0;whiteSpace=wrap;html=1;sketch=1;hachureGap=4;jiggle=2;curveFitting=1;fontFamily=Architects Daughter;fontSource=https%3A%2F%2Ffonts.googleapis.com%2Fcss%3Ffamily%3DArchitects%2BDaughter;" vertex="1" parent="1">
          <mxGeometry x="1050" y="1690" width="50" height="73" as="geometry" />
        </mxCell>
        <mxCell id="sNwrbzi5gkeXXaAXlcDa-155" value="&lt;span style=&quot;font-size: 24px;&quot;&gt;Size&lt;/span&gt;" style="rounded=0;whiteSpace=wrap;html=1;sketch=1;hachureGap=4;jiggle=2;curveFitting=1;fontFamily=Architects Daughter;fontSource=https%3A%2F%2Ffonts.googleapis.com%2Fcss%3Ffamily%3DArchitects%2BDaughter;" vertex="1" parent="1">
          <mxGeometry x="1122.5" y="1329" width="115" height="73" as="geometry" />
        </mxCell>
        <mxCell id="sNwrbzi5gkeXXaAXlcDa-156" value="" style="rounded=0;whiteSpace=wrap;html=1;sketch=1;hachureGap=4;jiggle=2;curveFitting=1;fontFamily=Architects Daughter;fontSource=https%3A%2F%2Ffonts.googleapis.com%2Fcss%3Ffamily%3DArchitects%2BDaughter;" vertex="1" parent="1">
          <mxGeometry x="1125" y="1435" width="115" height="73" as="geometry" />
        </mxCell>
        <mxCell id="sNwrbzi5gkeXXaAXlcDa-157" value="" style="rounded=0;whiteSpace=wrap;html=1;sketch=1;hachureGap=4;jiggle=2;curveFitting=1;fontFamily=Architects Daughter;fontSource=https%3A%2F%2Ffonts.googleapis.com%2Fcss%3Ffamily%3DArchitects%2BDaughter;" vertex="1" parent="1">
          <mxGeometry x="1125" y="1520" width="115" height="73" as="geometry" />
        </mxCell>
        <mxCell id="sNwrbzi5gkeXXaAXlcDa-158" value="&lt;span style=&quot;font-size: 48px;&quot;&gt;...&lt;/span&gt;" style="rounded=0;whiteSpace=wrap;html=1;sketch=1;hachureGap=4;jiggle=2;curveFitting=1;fontFamily=Architects Daughter;fontSource=https%3A%2F%2Ffonts.googleapis.com%2Fcss%3Ffamily%3DArchitects%2BDaughter;" vertex="1" parent="1">
          <mxGeometry x="1125" y="1606" width="115" height="73" as="geometry" />
        </mxCell>
        <mxCell id="sNwrbzi5gkeXXaAXlcDa-159" value="" style="rounded=0;whiteSpace=wrap;html=1;sketch=1;hachureGap=4;jiggle=2;curveFitting=1;fontFamily=Architects Daughter;fontSource=https%3A%2F%2Ffonts.googleapis.com%2Fcss%3Ffamily%3DArchitects%2BDaughter;" vertex="1" parent="1">
          <mxGeometry x="1125" y="1690" width="115" height="73" as="geometry" />
        </mxCell>
      </root>
    </mxGraphModel>
  </diagram>
</mxfile>
